<?xml version="1.0" standalone="no"?>
<!DOCTYPE svg PUBLIC "-//W3C//DTD SVG 1.1//EN" "http://www.w3.org/Graphics/SVG/1.1/DTD/svg11.dtd">
<svg width="343.0mm" height="420.34905450670556mm"
 viewBox="0 0 343.0 420.34905450670556"
 xmlns="http://www.w3.org/2000/svg" version="1.1"
 xmlns:xlink="http://www.w3.org/1999/xlink">
<desc>Output from Flights of Ideas SVG Sketchup Plugin</desc>

  <path id="face0-cut"
 style="fill:none;stroke:#0000FF;stroke-width:1;stroke-miterlimit:4;stroke-dasharray:none;stroke-linejoin:round;stroke-linecap:round"
        d="M 284.0685458449491,15.583065081490986 L 269.1048072158491,16.625430775468544 L 268.7643010891498,11.737276156629207 L 253.80056246004983,12.779641850606765 L 254.1410685867491,17.66779646944616 L 239.17732995764914,18.710162163423718 L 238.83682383094987,13.822007544584153 L 224.37187648948657,14.82962771543015 L 224.71238261618592,19.717782334268634 L 209.24985269944924,20.79489355137872 L 208.90934657274994,15.906738932537166 L 193.94560794364995,16.949104626517567 L 194.28611407034924,21.837259245356336 L 179.3223754412493,22.87962493933412 L 178.98186931454995,17.991470320494045 L 164.01813068545002,19.033836014472683 L 164.35863681214937,23.92199063331134 L 149.39489818304938,24.964356327288897 L 149.05439205635008,20.076201708449844 L 134.0906534272501,21.118567402426777 L 134.43115955394944,26.006722021266455 L 119.46742092484945,27.049087715243957 L 119.12691479815012,22.160933096405245 L 104.16317616905016,23.20329879038229 L 104.50368229574948,28.091453409221742 L 89.53994366664952,29.133819103199244 L 89.1994375399502,24.245664484359963 L 74.23569891085023,25.28803017833701 L 74.57620503754953,30.176184797177257 L 59.61246640844959,31.218550491154417 L 59.271960281750296,26.33039587231542 L 49.29613452901688,27.025306334965876 L 49.63664065571621,31.91346095380584 L 10.0,34.67452725335295 L 10.0,385.6745272533527 L 49.63664065571629,388.4355935528996 L 49.29613452901688,393.323748171739 L 59.27196028175021,394.0186586343906 L 59.61246640844951,389.1305040155513 L 74.57620503754953,390.17286970952887 L 74.23569891085015,395.06102432836803 L 89.19943753995014,396.1033900223457 L 89.53994366664952,391.2152354035064 L 104.5036822957494,392.257601097484 L 104.16317616905008,397.14575571632315 L 119.12691479815001,398.1881214103007 L 119.46742092484942,393.29996679146154 L 134.4311595539494,394.3423324854391 L 134.09065342725003,399.2304871042784 L 149.05439205634997,400.2728527982558 L 149.39489818304935,395.38469817941666 L 164.3586368121494,396.4270638733941 L 164.01813068545005,401.3152184922335 L 178.98186931455,402.35758418621106 L 179.32237544124933,397.46942956737155 L 194.2861140703493,398.5117952613492 L 193.94560794364997,403.3999498801886 L 208.9093465727499,404.44231557416606 L 209.2498526994493,399.5541609553268 L 224.2135913285493,400.59652664930434 L 223.87308520184996,405.48468126814373 L 238.8368238309499,406.5270469621212 L 239.1773299576492,401.6388923432818 L 254.14106858674927,402.68125803725934 L 253.8005624600499,407.56941265609873 L 268.7643010891498,408.6117783500764 L 269.1048072158492,403.7236237312369 L 284.06854584494914,404.76598942521446 L 283.72803971824976,409.65414404405374 L 293.70386547098315,410.34905450670556 L 294.04437159768247,405.4608998878663 L 333.0,408.17452725335284 L 333.0,12.174527253352778 L 294.0443715976824,14.888154618839337 L 293.7038654709831,10.0 L 283.72803971824976,10.694910462651649 L 284.0685458449491,15.583065081490986 "
  />
  <path id="face0-interior"
 style="fill:none;stroke:#FF0000;stroke-width:1;stroke-miterlimit:4;stroke-dasharray:none;stroke-linejoin:round;stroke-linecap:round"
        d="M 284.0685458449491,15.583065081490986 M 269.1048072158491,16.625430775468544 M 268.7643010891498,11.737276156629207 M 253.80056246004983,12.779641850606765 M 254.1410685867491,17.66779646944616 M 239.17732995764914,18.710162163423718 M 238.83682383094987,13.822007544584153 M 224.37187648948657,14.82962771543015 M 224.71238261618592,19.717782334268634 M 209.24985269944924,20.79489355137872 M 208.90934657274994,15.906738932537166 M 193.94560794364995,16.949104626517567 M 194.28611407034924,21.837259245356336 M 179.3223754412493,22.87962493933412 M 178.98186931454995,17.991470320494045 M 164.01813068545002,19.033836014472683 M 164.35863681214937,23.92199063331134 M 149.39489818304938,24.964356327288897 M 149.05439205635008,20.076201708449844 M 134.0906534272501,21.118567402426777 M 134.43115955394944,26.006722021266455 M 119.46742092484945,27.049087715243957 M 119.12691479815012,22.160933096405245 M 104.16317616905016,23.20329879038229 M 104.50368229574948,28.091453409221742 M 89.53994366664952,29.133819103199244 M 89.1994375399502,24.245664484359963 M 74.23569891085023,25.28803017833701 M 74.57620503754953,30.176184797177257 M 59.61246640844959,31.218550491154417 M 59.271960281750296,26.33039587231542 M 49.29613452901688,27.025306334965876 M 49.63664065571621,31.91346095380584 M 10.0,34.67452725335295 M 10.0,385.6745272533527 M 49.63664065571629,388.4355935528996 M 49.29613452901688,393.323748171739 M 59.27196028175021,394.0186586343906 M 59.61246640844951,389.1305040155513 M 74.57620503754953,390.17286970952887 M 74.23569891085015,395.06102432836803 M 89.19943753995014,396.1033900223457 M 89.53994366664952,391.2152354035064 M 104.5036822957494,392.257601097484 M 104.16317616905008,397.14575571632315 M 119.12691479815001,398.1881214103007 M 119.46742092484942,393.29996679146154 M 134.4311595539494,394.3423324854391 M 134.09065342725003,399.2304871042784 M 149.05439205634997,400.2728527982558 M 149.39489818304935,395.38469817941666 M 164.3586368121494,396.4270638733941 M 164.01813068545005,401.3152184922335 M 178.98186931455,402.35758418621106 M 179.32237544124933,397.46942956737155 M 194.2861140703493,398.5117952613492 M 193.94560794364997,403.3999498801886 M 208.9093465727499,404.44231557416606 M 209.2498526994493,399.5541609553268 M 224.2135913285493,400.59652664930434 M 223.87308520184996,405.48468126814373 M 238.8368238309499,406.5270469621212 M 239.1773299576492,401.6388923432818 M 254.14106858674927,402.68125803725934 M 253.8005624600499,407.56941265609873 M 268.7643010891498,408.6117783500764 M 269.1048072158492,403.7236237312369 M 284.06854584494914,404.76598942521446 M 283.72803971824976,409.65414404405374 M 293.70386547098315,410.34905450670556 M 294.04437159768247,405.4608998878663 M 333.0,408.17452725335284 M 333.0,12.174527253352778 M 294.0443715976824,14.888154618839337 M 293.7038654709831,10.0 M 283.72803971824976,10.694910462651649 "
  />
  <path id="face0-interior"
 style="fill:none;stroke:#00FF00;stroke-width:1;stroke-miterlimit:4;stroke-dasharray:none;stroke-linejoin:round;stroke-linecap:round"
        d="M 284.0685458449491,15.583065081490986 M 269.1048072158491,16.625430775468544 M 268.7643010891498,11.737276156629207 M 253.80056246004983,12.779641850606765 M 254.1410685867491,17.66779646944616 M 239.17732995764914,18.710162163423718 M 238.83682383094987,13.822007544584153 M 224.37187648948657,14.82962771543015 M 224.71238261618592,19.717782334268634 M 209.24985269944924,20.79489355137872 M 208.90934657274994,15.906738932537166 M 193.94560794364995,16.949104626517567 M 194.28611407034924,21.837259245356336 M 179.3223754412493,22.87962493933412 M 178.98186931454995,17.991470320494045 M 164.01813068545002,19.033836014472683 M 164.35863681214937,23.92199063331134 M 149.39489818304938,24.964356327288897 M 149.05439205635008,20.076201708449844 M 134.0906534272501,21.118567402426777 M 134.43115955394944,26.006722021266455 M 119.46742092484945,27.049087715243957 M 119.12691479815012,22.160933096405245 M 104.16317616905016,23.20329879038229 M 104.50368229574948,28.091453409221742 M 89.53994366664952,29.133819103199244 M 89.1994375399502,24.245664484359963 M 74.23569891085023,25.28803017833701 M 74.57620503754953,30.176184797177257 M 59.61246640844959,31.218550491154417 M 59.271960281750296,26.33039587231542 M 49.29613452901688,27.025306334965876 M 49.63664065571621,31.91346095380584 M 10.0,34.67452725335295 M 10.0,385.6745272533527 M 49.63664065571629,388.4355935528996 M 49.29613452901688,393.323748171739 M 59.27196028175021,394.0186586343906 M 59.61246640844951,389.1305040155513 M 74.57620503754953,390.17286970952887 M 74.23569891085015,395.06102432836803 M 89.19943753995014,396.1033900223457 M 89.53994366664952,391.2152354035064 M 104.5036822957494,392.257601097484 M 104.16317616905008,397.14575571632315 M 119.12691479815001,398.1881214103007 M 119.46742092484942,393.29996679146154 M 134.4311595539494,394.3423324854391 M 134.09065342725003,399.2304871042784 M 149.05439205634997,400.2728527982558 M 149.39489818304935,395.38469817941666 M 164.3586368121494,396.4270638733941 M 164.01813068545005,401.3152184922335 M 178.98186931455,402.35758418621106 M 179.32237544124933,397.46942956737155 M 194.2861140703493,398.5117952613492 M 193.94560794364997,403.3999498801886 M 208.9093465727499,404.44231557416606 M 209.2498526994493,399.5541609553268 M 224.2135913285493,400.59652664930434 M 223.87308520184996,405.48468126814373 M 238.8368238309499,406.5270469621212 M 239.1773299576492,401.6388923432818 M 254.14106858674927,402.68125803725934 M 253.8005624600499,407.56941265609873 M 268.7643010891498,408.6117783500764 M 269.1048072158492,403.7236237312369 M 284.06854584494914,404.76598942521446 M 283.72803971824976,409.65414404405374 M 293.70386547098315,410.34905450670556 M 294.04437159768247,405.4608998878663 M 333.0,408.17452725335284 M 333.0,12.174527253352778 M 294.0443715976824,14.888154618839337 M 293.7038654709831,10.0 M 283.72803971824976,10.694910462651649 "
  />
</svg>
