<?xml version="1.0" standalone="no"?>
<!DOCTYPE svg PUBLIC "-//W3C//DTD SVG 1.1//EN" "http://www.w3.org/Graphics/SVG/1.1/DTD/svg11.dtd">
<svg width="267.0679728729687mm" height="66.46444353234259mm"
 viewBox="0 0 267.0679728729687 66.46444353234259"
 xmlns="http://www.w3.org/2000/svg" version="1.1"
 xmlns:xlink="http://www.w3.org/1999/xlink">
<desc>Output from Flights of Ideas SVG Sketchup Plugin</desc>

  <path id="face0-cut"
 style="fill:none;stroke:#0000FF;stroke-width:1;stroke-miterlimit:4;stroke-dasharray:none;stroke-linejoin:round;stroke-linecap:round"
        d="M 244.43190518923296,35.94080350383993 L 254.40773094196624,35.24589304118828 L 257.0679728729687,10.0 L 12.660241931002474,27.02530633496636 L 10.0,52.27119937615478 L 19.975825752733215,51.57628891350342 L 20.316331879432823,56.464443532342585 L 35.280070508532674,55.42207783836497 L 34.93956438183341,50.5339232195262 L 49.90330301093326,49.4915575255483 L 50.24380913763247,54.37971214438747 L 65.20754776673266,53.33734645040974 L 64.86704164003311,48.449191831570744 L 79.8307802691333,47.40682613759347 L 80.17128639583251,52.29498075643235 L 95.13502502493236,51.25261506245485 L 94.79451889823315,46.3644604436154 L 109.758257527333,45.32209474963801 L 110.09876365403255,50.21024936847735 L 125.0625022831324,49.16788367449956 L 124.72199615643319,44.279729055660454 L 139.68573478553304,43.23736336168278 L 140.02624091223225,48.12551798052212 L 154.98997954133245,47.083152286544504 L 154.64947341463284,42.19499766770522 L 169.61321204373309,41.152631973727665 L 169.9537181704323,46.04078659256706 L 185.41624808716927,44.963675375456916 L 185.0757419604697,40.07552075661752 L 199.5406893019328,39.06790058577266 L 199.88119542863234,43.95605520461194 L 214.84493405773213,42.913689510634384 L 214.50442793103258,38.02553489179505 L 229.46816656013317,36.983169197817546 L 229.80867268683204,41.871323816656826 L 244.77241131593252,40.828958122679325 L 244.43190518923296,35.94080350383993 "
  />
  <path id="face0-interior"
 style="fill:none;stroke:#FF0000;stroke-width:1;stroke-miterlimit:4;stroke-dasharray:none;stroke-linejoin:round;stroke-linecap:round"
        d="M 244.43190518923296,35.94080350383993 M 254.40773094196624,35.24589304118828 M 257.0679728729687,10.0 M 12.660241931002474,27.02530633496636 M 10.0,52.27119937615478 M 19.975825752733215,51.57628891350342 M 20.316331879432823,56.464443532342585 M 35.280070508532674,55.42207783836497 M 34.93956438183341,50.5339232195262 M 49.90330301093326,49.4915575255483 M 50.24380913763247,54.37971214438747 M 65.20754776673266,53.33734645040974 M 64.86704164003311,48.449191831570744 M 79.8307802691333,47.40682613759347 M 80.17128639583251,52.29498075643235 M 95.13502502493236,51.25261506245485 M 94.79451889823315,46.3644604436154 M 109.758257527333,45.32209474963801 M 110.09876365403255,50.21024936847735 M 125.0625022831324,49.16788367449956 M 124.72199615643319,44.279729055660454 M 139.68573478553304,43.23736336168278 M 140.02624091223225,48.12551798052212 M 154.98997954133245,47.083152286544504 M 154.64947341463284,42.19499766770522 M 169.61321204373309,41.152631973727665 M 169.9537181704323,46.04078659256706 M 185.41624808716927,44.963675375456916 M 185.0757419604697,40.07552075661752 M 199.5406893019328,39.06790058577266 M 199.88119542863234,43.95605520461194 M 214.84493405773213,42.913689510634384 M 214.50442793103258,38.02553489179505 M 229.46816656013317,36.983169197817546 M 229.80867268683204,41.871323816656826 M 244.77241131593252,40.828958122679325 "
  />
  <path id="face0-interior"
 style="fill:none;stroke:#00FF00;stroke-width:1;stroke-miterlimit:4;stroke-dasharray:none;stroke-linejoin:round;stroke-linecap:round"
        d="M 244.43190518923296,35.94080350383993 M 254.40773094196624,35.24589304118828 M 257.0679728729687,10.0 M 12.660241931002474,27.02530633496636 M 10.0,52.27119937615478 M 19.975825752733215,51.57628891350342 M 20.316331879432823,56.464443532342585 M 35.280070508532674,55.42207783836497 M 34.93956438183341,50.5339232195262 M 49.90330301093326,49.4915575255483 M 50.24380913763247,54.37971214438747 M 65.20754776673266,53.33734645040974 M 64.86704164003311,48.449191831570744 M 79.8307802691333,47.40682613759347 M 80.17128639583251,52.29498075643235 M 95.13502502493236,51.25261506245485 M 94.79451889823315,46.3644604436154 M 109.758257527333,45.32209474963801 M 110.09876365403255,50.21024936847735 M 125.0625022831324,49.16788367449956 M 124.72199615643319,44.279729055660454 M 139.68573478553304,43.23736336168278 M 140.02624091223225,48.12551798052212 M 154.98997954133245,47.083152286544504 M 154.64947341463284,42.19499766770522 M 169.61321204373309,41.152631973727665 M 169.9537181704323,46.04078659256706 M 185.41624808716927,44.963675375456916 M 185.0757419604697,40.07552075661752 M 199.5406893019328,39.06790058577266 M 199.88119542863234,43.95605520461194 M 214.84493405773213,42.913689510634384 M 214.50442793103258,38.02553489179505 M 229.46816656013317,36.983169197817546 M 229.80867268683204,41.871323816656826 M 244.77241131593252,40.828958122679325 "
  />
</svg>
