<?xml version="1.0" standalone="no"?>
<!DOCTYPE svg PUBLIC "-//W3C//DTD SVG 1.1//EN" "http://www.w3.org/Graphics/SVG/1.1/DTD/svg11.dtd">
<svg width="190.60000000001727mm" height="382.60000593609226mm"
 viewBox="0 0 190.60000000001727 382.60000593609226"
 xmlns="http://www.w3.org/2000/svg" version="1.1"
 xmlns:xlink="http://www.w3.org/1999/xlink">
<desc>Output from Flights of Ideas SVG Sketchup Plugin</desc>

  <path id="face0-cut"
 style="fill:none;stroke:#0000FF;stroke-width:1;stroke-miterlimit:4;stroke-dasharray:none;stroke-linejoin:round;stroke-linecap:round"
        d="M 160.00000000001046,370.6252184722813 L 175.00000000001043,372.60000593609226 L 175.80138373758342,366.5128921155518 L 180.60000000001727,367.14464193146466 L 180.6000000000118,38.00883765593744 L 174.3588981529707,37.18718101007698 L 175.07831571534314,31.72266210192157 L 160.07831571534297,29.747874638110943 L 159.3588981529705,35.21239354626573 L 144.35889815297057,33.23760608245442 L 145.07831571534268,27.773087174299462 L 130.07831571534297,25.79829971048872 L 129.35889815297085,31.262818618643735 L 114.35889815297071,29.28803115483265 L 115.07831571534292,23.823512246677524 L 100.0783157153428,21.848724782866668 L 99.35889815297055,27.313243691021626 L 84.35889815297074,25.338456227210713 L 85.07831571534275,19.87393731905587 L 70.07831571534274,17.899149855244843 L 69.35889815297054,23.363668763399744 L 54.35889815297048,21.38888129958889 L 55.07831571534281,15.92436239143342 L 40.078315715342754,13.949574927621825 L 39.35889815297047,19.414093835777635 L 24.35889815297047,17.439306371966893 L 25.078315715342853,11.97478746381114 L 10.078315715346065,10.0 L 10.000000000013983,10.594866916824685 L 10.000000000013287,21.223643886248112 L 15.50000000001215,21.22364388624868 L 15.50000000001208,36.22364388624868 L 10.000000000012676,36.22364388624868 L 10.00000000001171,51.22364388624919 L 15.50000000001127,51.22364388624885 L 15.500000000011013,66.2236438862493 L 10.00000000001161,66.22364388624948 L 10.000000000011141,81.22364388624925 L 15.5000000000107,81.22364388624857 L 15.5000000000109,96.22364388624891 L 10.000000000010516,96.22364388624908 L 10.000000000010843,111.22364388624925 L 15.500000000009848,111.22364388624936 L 15.50000000000928,126.22364388624868 L 10.000000000010417,126.22364388624908 L 10.00000000000992,141.22364388624885 L 15.500000000010203,141.2236438862497 L 15.50000000000874,156.2236438862493 L 10.000000000009805,156.22364388624922 L 10.000000000009635,171.22364388624982 L 15.500000000008171,171.22364388624925 L 15.50000000000901,186.2236438862493 L 10.000000000008527,186.2236438862489 L 10.000000000007887,201.2236438862502 L 15.500000000007972,201.22364388624953 L 15.50000000000773,216.2236438862496 L 10.000000000007773,216.2236438862495 L 10.000000000007887,231.22364388624905 L 15.500000000007702,231.22364388624985 L 15.50000000000685,246.22364388625002 L 10.00000000000719,246.22364388624916 L 10.000000000007063,261.22364388624953 L 15.500000000006438,261.22364388624976 L 15.500000000011894,276.2236438862501 L 10.000000000010147,276.22364388624914 L 10.00000000001019,291.223643886249 L 15.500000000011937,291.22364388625004 L 15.50000000001188,306.2236438862501 L 10.000000000010289,306.22364388624936 L 10.00000000001026,321.2236438862487 L 15.50000000001188,321.22364388625004 L 15.500000000011852,336.22364388625 L 10.00000000000297,336.2236438862469 L 10.0,350.8773438341682 L 25.00000000001043,352.85213129798063 L 25.80138373758294,346.76501747744254 L 40.80138373758297,348.7398049412538 L 40.00000000001042,354.82691876179194 L 55.000000000010445,356.8017062256031 L 55.80138373758321,350.7145924050646 L 70.80138373758314,352.68937986887573 L 70.0000000000104,358.77649368941434 L 85.00000000001042,360.75128115322553 L 85.80138373758325,354.6641673326864 L 100.80138373758325,356.6389547964976 L 100.00000000001046,362.7260686170368 L 115.00000000001043,364.7008560808478 L 115.80138373758336,358.6137422603081 L 130.80138373758334,360.5885297241193 L 130.00000000001046,366.67564354465907 L 145.00000000001035,368.6504310084701 L 145.8013837375834,362.5633171879298 L 160.80138373758334,364.5381046517411 L 160.00000000001046,370.6252184722813 "
  />
  <path id="face0-interior"
 style="fill:none;stroke:#FF0000;stroke-width:1;stroke-miterlimit:4;stroke-dasharray:none;stroke-linejoin:round;stroke-linecap:round"
        d="M 160.00000000001046,370.6252184722813 M 175.00000000001043,372.60000593609226 M 175.80138373758342,366.5128921155518 M 180.60000000001727,367.14464193146466 M 180.6000000000118,38.00883765593744 M 174.3588981529707,37.18718101007698 M 175.07831571534314,31.72266210192157 M 160.07831571534297,29.747874638110943 M 159.3588981529705,35.21239354626573 M 144.35889815297057,33.23760608245442 M 145.07831571534268,27.773087174299462 M 130.07831571534297,25.79829971048872 M 129.35889815297085,31.262818618643735 M 114.35889815297071,29.28803115483265 M 115.07831571534292,23.823512246677524 M 100.0783157153428,21.848724782866668 M 99.35889815297055,27.313243691021626 M 84.35889815297074,25.338456227210713 M 85.07831571534275,19.87393731905587 M 70.07831571534274,17.899149855244843 M 69.35889815297054,23.363668763399744 M 54.35889815297048,21.38888129958889 M 55.07831571534281,15.92436239143342 M 40.078315715342754,13.949574927621825 M 39.35889815297047,19.414093835777635 M 24.35889815297047,17.439306371966893 M 25.078315715342853,11.97478746381114 M 10.078315715346065,10.0 M 10.000000000013983,10.594866916824685 M 10.000000000013287,21.223643886248112 M 15.50000000001215,21.22364388624868 M 15.50000000001208,36.22364388624868 M 10.000000000012676,36.22364388624868 M 10.00000000001171,51.22364388624919 M 15.50000000001127,51.22364388624885 M 15.500000000011013,66.2236438862493 M 10.00000000001161,66.22364388624948 M 10.000000000011141,81.22364388624925 M 15.5000000000107,81.22364388624857 M 15.5000000000109,96.22364388624891 M 10.000000000010516,96.22364388624908 M 10.000000000010843,111.22364388624925 M 15.500000000009848,111.22364388624936 M 15.50000000000928,126.22364388624868 M 10.000000000010417,126.22364388624908 M 10.00000000000992,141.22364388624885 M 15.500000000010203,141.2236438862497 M 15.50000000000874,156.2236438862493 M 10.000000000009805,156.22364388624922 M 10.000000000009635,171.22364388624982 M 15.500000000008171,171.22364388624925 M 15.50000000000901,186.2236438862493 M 10.000000000008527,186.2236438862489 M 10.000000000007887,201.2236438862502 M 15.500000000007972,201.22364388624953 M 15.50000000000773,216.2236438862496 M 10.000000000007773,216.2236438862495 M 10.000000000007887,231.22364388624905 M 15.500000000007702,231.22364388624985 M 15.50000000000685,246.22364388625002 M 10.00000000000719,246.22364388624916 M 10.000000000007063,261.22364388624953 M 15.500000000006438,261.22364388624976 M 15.500000000011894,276.2236438862501 M 10.000000000010147,276.22364388624914 M 10.00000000001019,291.223643886249 M 15.500000000011937,291.22364388625004 M 15.50000000001188,306.2236438862501 M 10.000000000010289,306.22364388624936 M 10.00000000001026,321.2236438862487 M 15.50000000001188,321.22364388625004 M 15.500000000011852,336.22364388625 M 10.00000000000297,336.2236438862469 M 10.0,350.8773438341682 M 25.00000000001043,352.85213129798063 M 25.80138373758294,346.76501747744254 M 40.80138373758297,348.7398049412538 M 40.00000000001042,354.82691876179194 M 55.000000000010445,356.8017062256031 M 55.80138373758321,350.7145924050646 M 70.80138373758314,352.68937986887573 M 70.0000000000104,358.77649368941434 M 85.00000000001042,360.75128115322553 M 85.80138373758325,354.6641673326864 M 100.80138373758325,356.6389547964976 M 100.00000000001046,362.7260686170368 M 115.00000000001043,364.7008560808478 M 115.80138373758336,358.6137422603081 M 130.80138373758334,360.5885297241193 M 130.00000000001046,366.67564354465907 M 145.00000000001035,368.6504310084701 M 145.8013837375834,362.5633171879298 M 160.80138373758334,364.5381046517411 "
  />
  <path id="face0-interior"
 style="fill:none;stroke:#00FF00;stroke-width:1;stroke-miterlimit:4;stroke-dasharray:none;stroke-linejoin:round;stroke-linecap:round"
        d="M 160.00000000001046,370.6252184722813 M 175.00000000001043,372.60000593609226 M 175.80138373758342,366.5128921155518 M 180.60000000001727,367.14464193146466 M 180.6000000000118,38.00883765593744 M 174.3588981529707,37.18718101007698 M 175.07831571534314,31.72266210192157 M 160.07831571534297,29.747874638110943 M 159.3588981529705,35.21239354626573 M 144.35889815297057,33.23760608245442 M 145.07831571534268,27.773087174299462 M 130.07831571534297,25.79829971048872 M 129.35889815297085,31.262818618643735 M 114.35889815297071,29.28803115483265 M 115.07831571534292,23.823512246677524 M 100.0783157153428,21.848724782866668 M 99.35889815297055,27.313243691021626 M 84.35889815297074,25.338456227210713 M 85.07831571534275,19.87393731905587 M 70.07831571534274,17.899149855244843 M 69.35889815297054,23.363668763399744 M 54.35889815297048,21.38888129958889 M 55.07831571534281,15.92436239143342 M 40.078315715342754,13.949574927621825 M 39.35889815297047,19.414093835777635 M 24.35889815297047,17.439306371966893 M 25.078315715342853,11.97478746381114 M 10.078315715346065,10.0 M 10.000000000013983,10.594866916824685 M 10.000000000013287,21.223643886248112 M 15.50000000001215,21.22364388624868 M 15.50000000001208,36.22364388624868 M 10.000000000012676,36.22364388624868 M 10.00000000001171,51.22364388624919 M 15.50000000001127,51.22364388624885 M 15.500000000011013,66.2236438862493 M 10.00000000001161,66.22364388624948 M 10.000000000011141,81.22364388624925 M 15.5000000000107,81.22364388624857 M 15.5000000000109,96.22364388624891 M 10.000000000010516,96.22364388624908 M 10.000000000010843,111.22364388624925 M 15.500000000009848,111.22364388624936 M 15.50000000000928,126.22364388624868 M 10.000000000010417,126.22364388624908 M 10.00000000000992,141.22364388624885 M 15.500000000010203,141.2236438862497 M 15.50000000000874,156.2236438862493 M 10.000000000009805,156.22364388624922 M 10.000000000009635,171.22364388624982 M 15.500000000008171,171.22364388624925 M 15.50000000000901,186.2236438862493 M 10.000000000008527,186.2236438862489 M 10.000000000007887,201.2236438862502 M 15.500000000007972,201.22364388624953 M 15.50000000000773,216.2236438862496 M 10.000000000007773,216.2236438862495 M 10.000000000007887,231.22364388624905 M 15.500000000007702,231.22364388624985 M 15.50000000000685,246.22364388625002 M 10.00000000000719,246.22364388624916 M 10.000000000007063,261.22364388624953 M 15.500000000006438,261.22364388624976 M 15.500000000011894,276.2236438862501 M 10.000000000010147,276.22364388624914 M 10.00000000001019,291.223643886249 M 15.500000000011937,291.22364388625004 M 15.50000000001188,306.2236438862501 M 10.000000000010289,306.22364388624936 M 10.00000000001026,321.2236438862487 M 15.50000000001188,321.22364388625004 M 15.500000000011852,336.22364388625 M 10.00000000000297,336.2236438862469 M 10.0,350.8773438341682 M 25.00000000001043,352.85213129798063 M 25.80138373758294,346.76501747744254 M 40.80138373758297,348.7398049412538 M 40.00000000001042,354.82691876179194 M 55.000000000010445,356.8017062256031 M 55.80138373758321,350.7145924050646 M 70.80138373758314,352.68937986887573 M 70.0000000000104,358.77649368941434 M 85.00000000001042,360.75128115322553 M 85.80138373758325,354.6641673326864 M 100.80138373758325,356.6389547964976 M 100.00000000001046,362.7260686170368 M 115.00000000001043,364.7008560808478 M 115.80138373758336,358.6137422603081 M 130.80138373758334,360.5885297241193 M 130.00000000001046,366.67564354465907 M 145.00000000001035,368.6504310084701 M 145.8013837375834,362.5633171879298 M 160.80138373758334,364.5381046517411 "
  />
</svg>
