<?xml version="1.0" standalone="no"?>
<!DOCTYPE svg PUBLIC "-//W3C//DTD SVG 1.1//EN" "http://www.w3.org/Graphics/SVG/1.1/DTD/svg11.dtd">
<svg width="349.8157671775461mm" height="414.38144744162986mm"
 viewBox="0 0 349.8157671775461 414.38144744162986"
 xmlns="http://www.w3.org/2000/svg" version="1.1"
 xmlns:xlink="http://www.w3.org/1999/xlink">
<desc>Output from Flights of Ideas SVG Sketchup Plugin</desc>

  <path id="face0-cut"
 style="fill:none;stroke:#0000FF;stroke-width:1;stroke-miterlimit:4;stroke-dasharray:none;stroke-linejoin:round;stroke-linecap:round"
        d="M 328.5775609777907,404.38144744162986 L 328.95976173224915,398.8947432776264 L 338.5000000000001,399.5593109588164 L 339.8157671775461,399.5593109588164 L 339.815767177546,394.6907237208151 L 333.8984275302074,394.6907237208151 L 333.8984275302074,379.6907237208151 L 339.8157671775461,379.6907237208151 L 339.8157671775461,364.6907237208151 L 333.8984275302074,364.6907237208151 L 333.8984275302074,349.6907237208151 L 339.815767177546,349.6907237208151 L 339.815767177546,334.690723720815 L 333.8984275302074,334.690723720815 L 333.8984275302074,319.690723720815 L 339.8157671775461,319.690723720815 L 339.815767177546,304.69072372081496 L 333.8984275302074,304.69072372081496 L 333.8984275302074,289.69072372081496 L 339.815767177546,289.69072372081496 L 339.815767177546,274.69072372081496 L 333.8984275302074,274.69072372081496 L 333.8984275302074,259.6907237208149 L 339.8157671775461,259.69072372081496 L 339.8157671775461,244.6907237208149 L 333.8984275302074,244.6907237208149 L 333.8984275302074,229.6907237208149 L 339.815767177546,229.6907237208149 L 339.8157671775461,214.69072372081484 L 333.8984275302074,214.69072372081484 L 333.8984275302074,199.69072372081484 L 339.8157671775461,199.69072372081484 L 339.815767177546,184.6907237208148 L 333.8984275302074,184.69072372081484 L 333.8984275302074,169.69072372081484 L 339.815767177546,169.69072372081484 L 339.8157671775461,154.6907237208149 L 333.8984275302074,154.6907237208149 L 333.8984275302074,139.69072372081487 L 339.815767177546,139.69072372081484 L 339.8157671775461,124.69072372081486 L 333.89842753020736,124.6907237208149 L 333.89842753020736,109.69072372081489 L 339.8157671775461,109.69072372081489 L 339.8157671775461,94.69072372081492 L 333.8984275302074,94.69072372081492 L 333.89842753020736,79.6907237208149 L 339.815767177546,79.69072372081494 L 339.8157671775461,64.69072372081487 L 333.8984275302074,64.69072372081493 L 333.89842753020747,49.6907237208149 L 339.8157671775461,49.69072372081486 L 339.815767177546,34.69072372081489 L 333.8984275302074,34.69072372081489 L 333.8984275302074,19.690723720814916 L 339.815767177546,19.690723720814873 L 339.8157671775461,14.822136482813377 L 338.5000000000001,14.822136482813335 L 328.9597617322493,15.486704164003328 L 328.57756097779105,10.0 L 313.61382234869086,11.042365693977544 L 313.99602310314935,16.529069857980872 L 299.0322844740491,17.571435551958515 L 298.65008371959067,12.084731387955188 L 283.6863450904909,13.127097081932604 L 284.06854584494926,18.613801245936074 L 269.10480721584923,19.656166939913632 L 268.72260646139085,14.169462775910247 L 253.75886783229078,15.211828469887763 L 254.14106858674927,20.69853263389109 L 239.17732995764925,21.74089832786865 L 238.79512920319087,16.254194163865364 L 223.8313905740908,17.296559857842908 L 224.21359132854923,22.783264021846286 L 209.24985269944938,23.825629715823794 L 208.86765194499083,18.338925551820466 L 193.90391331589103,19.381291245798067 L 194.28611407034936,24.867995409801438 L 179.32237544124933,25.910361103778854 L 178.9401746867909,20.42365693977557 L 163.97643605769093,21.46602263375317 L 164.35863681214948,26.952726797756455 L 149.3948981830494,27.9950924917341 L 149.01269742859114,22.50838832773072 L 134.04895879949106,23.55075402170832 L 134.4311595539495,29.037458185711515 L 119.46742092484955,30.079823879689116 L 119.08522017039108,24.59311971568583 L 104.12148154129115,25.63548540966338 L 104.50368229574973,31.122189573666574 L 89.5399436666495,32.16455526764427 L 89.1577429121911,26.67785110364089 L 74.19400428309125,27.720216797618583 L 74.57620503754985,33.20692096162173 L 59.61246640844975,34.249286655599235 L 59.23026565399124,28.762582491596042 L 44.266527024891445,29.8049481855736 L 44.648727779349684,35.29165234957679 L 29.684989150249848,36.33401804355439 L 29.302788395791325,30.847313879551194 L 14.339049766691488,31.889679573528795 L 14.721250521150012,37.37638373753208 L 10.000000000000085,37.70526341779777 L 10.000000000000043,49.69072372081495 L 15.83714167656396,49.6907237208149 L 15.837141676563917,64.69072372081479 L 10.000000000000128,64.69072372081479 L 10.000000000000043,79.6907237208149 L 15.837141676563874,79.6907237208149 L 15.83714167656396,94.69072372081492 L 10.000000000000128,94.69072372081487 L 10.000000000000085,109.69072372081497 L 15.837141676563874,109.69072372081507 L 15.837141676563917,124.6907237208149 L 10.000000000000043,124.6907237208149 L 10.000000000000043,139.69072372081487 L 15.837141676564016,139.69072372081484 L 15.83714167656396,154.6907237208148 L 10.000000000000128,154.69072372081484 L 10.000000000000128,169.6907237208148 L 15.837141676563917,169.69072372081484 L 15.837141676563874,184.69072372081484 L 10.000000000000085,184.6907237208149 L 10.000000000000085,199.69072372081484 L 15.83714167656396,199.69072372081484 L 15.83714167656396,214.69072372081484 L 10.000000000000128,214.69072372081484 L 10.000000000000085,229.69072372081484 L 15.837141676563917,229.69072372081496 L 15.83714167656396,244.69072372081484 L 10.0,244.69072372081501 L 10.000000000000085,259.6907237208149 L 15.837141676564059,259.69072372081496 L 15.837141676564144,274.69072372081484 L 10.000000000000085,274.6907237208149 L 10.000000000000085,289.6907237208151 L 15.837141676564286,289.6907237208149 L 15.837141676564286,304.69072372081496 L 10.000000000000085,304.69072372081513 L 10.000000000000085,319.690723720815 L 15.837141676564286,319.6907237208149 L 15.83714167656423,334.69072372081513 L 10.000000000000043,334.69072372081513 L 10.000000000000085,349.6907237208149 L 15.837141676564102,349.69072372081484 L 15.837141676564102,364.69072372081496 L 10.000000000000128,364.6907237208149 L 10.000000000000128,376.6761840238314 L 14.721250521149642,377.0050637040978 L 14.339049766691176,382.491767868101 L 29.302788395791197,383.534133562079 L 29.68498915024962,378.0474293980751 L 44.648727779349684,379.08979509205295 L 44.26652702489122,384.57649925605614 L 59.230265653991054,385.6188649500337 L 59.61246640844948,380.13216078603045 L 74.57620503754954,381.17452648000796 L 74.19400428309108,386.6612306440108 L 89.1577429121911,387.70359633798887 L 89.53994366664956,382.21689217398585 L 104.50368229574939,383.25925786796296 L 104.12148154129092,388.7459620319664 L 119.08522017039114,389.7883277259436 L 119.4674209248496,384.3016235619408 L 134.43115955394944,385.34398925591813 L 134.04895879949095,390.8306934199215 L 149.0126974285908,391.87305911389905 L 149.39489818304946,386.3863549498957 L 164.35863681214948,387.4287206438733 L 163.97643605769105,392.9154248078763 L 178.94017468679107,393.9577905018542 L 179.32237544124933,388.47108633785086 L 194.28611407034936,389.5134520318283 L 193.90391331589103,395.00015619583155 L 208.86765194499088,396.04252188980934 L 209.24985269944938,390.5558177258059 L 224.2135913285494,391.5981834197835 L 223.8313905740909,397.0848875837867 L 238.79512920319092,398.1272532777642 L 239.17732995764942,392.64054911376104 L 254.1410685867492,393.68291480773854 L 253.75886783229095,399.1696189717418 L 268.7226064613908,400.2119846657194 L 269.10480721584923,394.72528050171604 L 284.06854584494926,395.7676461956936 L 283.6863450904908,401.254350359697 L 298.65008371959084,402.2967160536746 L 299.0322844740491,396.81001188967116 L 313.9960231031491,397.8523775836488 L 313.6138223486907,403.3390817476522 L 328.5775609777907,404.38144744162986 "
  />
  <path id="face0-interior"
 style="fill:none;stroke:#FF0000;stroke-width:1;stroke-miterlimit:4;stroke-dasharray:none;stroke-linejoin:round;stroke-linecap:round"
        d="M 328.5775609777907,404.38144744162986 M 328.95976173224915,398.8947432776264 M 338.5000000000001,399.5593109588164 M 339.8157671775461,399.5593109588164 M 339.815767177546,394.6907237208151 M 333.8984275302074,394.6907237208151 M 333.8984275302074,379.6907237208151 M 339.8157671775461,379.6907237208151 M 339.8157671775461,364.6907237208151 M 333.8984275302074,364.6907237208151 M 333.8984275302074,349.6907237208151 M 339.815767177546,349.6907237208151 M 339.815767177546,334.690723720815 M 333.8984275302074,334.690723720815 M 333.8984275302074,319.690723720815 M 339.8157671775461,319.690723720815 M 339.815767177546,304.69072372081496 M 333.8984275302074,304.69072372081496 M 333.8984275302074,289.69072372081496 M 339.815767177546,289.69072372081496 M 339.815767177546,274.69072372081496 M 333.8984275302074,274.69072372081496 M 333.8984275302074,259.6907237208149 M 339.8157671775461,259.69072372081496 M 339.8157671775461,244.6907237208149 M 333.8984275302074,244.6907237208149 M 333.8984275302074,229.6907237208149 M 339.815767177546,229.6907237208149 M 339.8157671775461,214.69072372081484 M 333.8984275302074,214.69072372081484 M 333.8984275302074,199.69072372081484 M 339.8157671775461,199.69072372081484 M 339.815767177546,184.6907237208148 M 333.8984275302074,184.69072372081484 M 333.8984275302074,169.69072372081484 M 339.815767177546,169.69072372081484 M 339.8157671775461,154.6907237208149 M 333.8984275302074,154.6907237208149 M 333.8984275302074,139.69072372081487 M 339.815767177546,139.69072372081484 M 339.8157671775461,124.69072372081486 M 333.89842753020736,124.6907237208149 M 333.89842753020736,109.69072372081489 M 339.8157671775461,109.69072372081489 M 339.8157671775461,94.69072372081492 M 333.8984275302074,94.69072372081492 M 333.89842753020736,79.6907237208149 M 339.815767177546,79.69072372081494 M 339.8157671775461,64.69072372081487 M 333.8984275302074,64.69072372081493 M 333.89842753020747,49.6907237208149 M 339.8157671775461,49.69072372081486 M 339.815767177546,34.69072372081489 M 333.8984275302074,34.69072372081489 M 333.8984275302074,19.690723720814916 M 339.815767177546,19.690723720814873 M 339.8157671775461,14.822136482813377 M 338.5000000000001,14.822136482813335 M 328.9597617322493,15.486704164003328 M 328.57756097779105,10.0 M 313.61382234869086,11.042365693977544 M 313.99602310314935,16.529069857980872 M 299.0322844740491,17.571435551958515 M 298.65008371959067,12.084731387955188 M 283.6863450904909,13.127097081932604 M 284.06854584494926,18.613801245936074 M 269.10480721584923,19.656166939913632 M 268.72260646139085,14.169462775910247 M 253.75886783229078,15.211828469887763 M 254.14106858674927,20.69853263389109 M 239.17732995764925,21.74089832786865 M 238.79512920319087,16.254194163865364 M 223.8313905740908,17.296559857842908 M 224.21359132854923,22.783264021846286 M 209.24985269944938,23.825629715823794 M 208.86765194499083,18.338925551820466 M 193.90391331589103,19.381291245798067 M 194.28611407034936,24.867995409801438 M 179.32237544124933,25.910361103778854 M 178.9401746867909,20.42365693977557 M 163.97643605769093,21.46602263375317 M 164.35863681214948,26.952726797756455 M 149.3948981830494,27.9950924917341 M 149.01269742859114,22.50838832773072 M 134.04895879949106,23.55075402170832 M 134.4311595539495,29.037458185711515 M 119.46742092484955,30.079823879689116 M 119.08522017039108,24.59311971568583 M 104.12148154129115,25.63548540966338 M 104.50368229574973,31.122189573666574 M 89.5399436666495,32.16455526764427 M 89.1577429121911,26.67785110364089 M 74.19400428309125,27.720216797618583 M 74.57620503754985,33.20692096162173 M 59.61246640844975,34.249286655599235 M 59.23026565399124,28.762582491596042 M 44.266527024891445,29.8049481855736 M 44.648727779349684,35.29165234957679 M 29.684989150249848,36.33401804355439 M 29.302788395791325,30.847313879551194 M 14.339049766691488,31.889679573528795 M 14.721250521150012,37.37638373753208 M 10.000000000000085,37.70526341779777 M 10.000000000000043,49.69072372081495 M 15.83714167656396,49.6907237208149 M 15.837141676563917,64.69072372081479 M 10.000000000000128,64.69072372081479 M 10.000000000000043,79.6907237208149 M 15.837141676563874,79.6907237208149 M 15.83714167656396,94.69072372081492 M 10.000000000000128,94.69072372081487 M 10.000000000000085,109.69072372081497 M 15.837141676563874,109.69072372081507 M 15.837141676563917,124.6907237208149 M 10.000000000000043,124.6907237208149 M 10.000000000000043,139.69072372081487 M 15.837141676564016,139.69072372081484 M 15.83714167656396,154.6907237208148 M 10.000000000000128,154.69072372081484 M 10.000000000000128,169.6907237208148 M 15.837141676563917,169.69072372081484 M 15.837141676563874,184.69072372081484 M 10.000000000000085,184.6907237208149 M 10.000000000000085,199.69072372081484 M 15.83714167656396,199.69072372081484 M 15.83714167656396,214.69072372081484 M 10.000000000000128,214.69072372081484 M 10.000000000000085,229.69072372081484 M 15.837141676563917,229.69072372081496 M 15.83714167656396,244.69072372081484 M 10.0,244.69072372081501 M 10.000000000000085,259.6907237208149 M 15.837141676564059,259.69072372081496 M 15.837141676564144,274.69072372081484 M 10.000000000000085,274.6907237208149 M 10.000000000000085,289.6907237208151 M 15.837141676564286,289.6907237208149 M 15.837141676564286,304.69072372081496 M 10.000000000000085,304.69072372081513 M 10.000000000000085,319.690723720815 M 15.837141676564286,319.6907237208149 M 15.83714167656423,334.69072372081513 M 10.000000000000043,334.69072372081513 M 10.000000000000085,349.6907237208149 M 15.837141676564102,349.69072372081484 M 15.837141676564102,364.69072372081496 M 10.000000000000128,364.6907237208149 M 10.000000000000128,376.6761840238314 M 14.721250521149642,377.0050637040978 M 14.339049766691176,382.491767868101 M 29.302788395791197,383.534133562079 M 29.68498915024962,378.0474293980751 M 44.648727779349684,379.08979509205295 M 44.26652702489122,384.57649925605614 M 59.230265653991054,385.6188649500337 M 59.61246640844948,380.13216078603045 M 74.57620503754954,381.17452648000796 M 74.19400428309108,386.6612306440108 M 89.1577429121911,387.70359633798887 M 89.53994366664956,382.21689217398585 M 104.50368229574939,383.25925786796296 M 104.12148154129092,388.7459620319664 M 119.08522017039114,389.7883277259436 M 119.4674209248496,384.3016235619408 M 134.43115955394944,385.34398925591813 M 134.04895879949095,390.8306934199215 M 149.0126974285908,391.87305911389905 M 149.39489818304946,386.3863549498957 M 164.35863681214948,387.4287206438733 M 163.97643605769105,392.9154248078763 M 178.94017468679107,393.9577905018542 M 179.32237544124933,388.47108633785086 M 194.28611407034936,389.5134520318283 M 193.90391331589103,395.00015619583155 M 208.86765194499088,396.04252188980934 M 209.24985269944938,390.5558177258059 M 224.2135913285494,391.5981834197835 M 223.8313905740909,397.0848875837867 M 238.79512920319092,398.1272532777642 M 239.17732995764942,392.64054911376104 M 254.1410685867492,393.68291480773854 M 253.75886783229095,399.1696189717418 M 268.7226064613908,400.2119846657194 M 269.10480721584923,394.72528050171604 M 284.06854584494926,395.7676461956936 M 283.6863450904908,401.254350359697 M 298.65008371959084,402.2967160536746 M 299.0322844740491,396.81001188967116 M 313.9960231031491,397.8523775836488 M 313.6138223486907,403.3390817476522 "
  />
  <path id="face0-interior"
 style="fill:none;stroke:#00FF00;stroke-width:1;stroke-miterlimit:4;stroke-dasharray:none;stroke-linejoin:round;stroke-linecap:round"
        d="M 328.5775609777907,404.38144744162986 M 328.95976173224915,398.8947432776264 M 338.5000000000001,399.5593109588164 M 339.8157671775461,399.5593109588164 M 339.815767177546,394.6907237208151 M 333.8984275302074,394.6907237208151 M 333.8984275302074,379.6907237208151 M 339.8157671775461,379.6907237208151 M 339.8157671775461,364.6907237208151 M 333.8984275302074,364.6907237208151 M 333.8984275302074,349.6907237208151 M 339.815767177546,349.6907237208151 M 339.815767177546,334.690723720815 M 333.8984275302074,334.690723720815 M 333.8984275302074,319.690723720815 M 339.8157671775461,319.690723720815 M 339.815767177546,304.69072372081496 M 333.8984275302074,304.69072372081496 M 333.8984275302074,289.69072372081496 M 339.815767177546,289.69072372081496 M 339.815767177546,274.69072372081496 M 333.8984275302074,274.69072372081496 M 333.8984275302074,259.6907237208149 M 339.8157671775461,259.69072372081496 M 339.8157671775461,244.6907237208149 M 333.8984275302074,244.6907237208149 M 333.8984275302074,229.6907237208149 M 339.815767177546,229.6907237208149 M 339.8157671775461,214.69072372081484 M 333.8984275302074,214.69072372081484 M 333.8984275302074,199.69072372081484 M 339.8157671775461,199.69072372081484 M 339.815767177546,184.6907237208148 M 333.8984275302074,184.69072372081484 M 333.8984275302074,169.69072372081484 M 339.815767177546,169.69072372081484 M 339.8157671775461,154.6907237208149 M 333.8984275302074,154.6907237208149 M 333.8984275302074,139.69072372081487 M 339.815767177546,139.69072372081484 M 339.8157671775461,124.69072372081486 M 333.89842753020736,124.6907237208149 M 333.89842753020736,109.69072372081489 M 339.8157671775461,109.69072372081489 M 339.8157671775461,94.69072372081492 M 333.8984275302074,94.69072372081492 M 333.89842753020736,79.6907237208149 M 339.815767177546,79.69072372081494 M 339.8157671775461,64.69072372081487 M 333.8984275302074,64.69072372081493 M 333.89842753020747,49.6907237208149 M 339.8157671775461,49.69072372081486 M 339.815767177546,34.69072372081489 M 333.8984275302074,34.69072372081489 M 333.8984275302074,19.690723720814916 M 339.815767177546,19.690723720814873 M 339.8157671775461,14.822136482813377 M 338.5000000000001,14.822136482813335 M 328.9597617322493,15.486704164003328 M 328.57756097779105,10.0 M 313.61382234869086,11.042365693977544 M 313.99602310314935,16.529069857980872 M 299.0322844740491,17.571435551958515 M 298.65008371959067,12.084731387955188 M 283.6863450904909,13.127097081932604 M 284.06854584494926,18.613801245936074 M 269.10480721584923,19.656166939913632 M 268.72260646139085,14.169462775910247 M 253.75886783229078,15.211828469887763 M 254.14106858674927,20.69853263389109 M 239.17732995764925,21.74089832786865 M 238.79512920319087,16.254194163865364 M 223.8313905740908,17.296559857842908 M 224.21359132854923,22.783264021846286 M 209.24985269944938,23.825629715823794 M 208.86765194499083,18.338925551820466 M 193.90391331589103,19.381291245798067 M 194.28611407034936,24.867995409801438 M 179.32237544124933,25.910361103778854 M 178.9401746867909,20.42365693977557 M 163.97643605769093,21.46602263375317 M 164.35863681214948,26.952726797756455 M 149.3948981830494,27.9950924917341 M 149.01269742859114,22.50838832773072 M 134.04895879949106,23.55075402170832 M 134.4311595539495,29.037458185711515 M 119.46742092484955,30.079823879689116 M 119.08522017039108,24.59311971568583 M 104.12148154129115,25.63548540966338 M 104.50368229574973,31.122189573666574 M 89.5399436666495,32.16455526764427 M 89.1577429121911,26.67785110364089 M 74.19400428309125,27.720216797618583 M 74.57620503754985,33.20692096162173 M 59.61246640844975,34.249286655599235 M 59.23026565399124,28.762582491596042 M 44.266527024891445,29.8049481855736 M 44.648727779349684,35.29165234957679 M 29.684989150249848,36.33401804355439 M 29.302788395791325,30.847313879551194 M 14.339049766691488,31.889679573528795 M 14.721250521150012,37.37638373753208 M 10.000000000000085,37.70526341779777 M 10.000000000000043,49.69072372081495 M 15.83714167656396,49.6907237208149 M 15.837141676563917,64.69072372081479 M 10.000000000000128,64.69072372081479 M 10.000000000000043,79.6907237208149 M 15.837141676563874,79.6907237208149 M 15.83714167656396,94.69072372081492 M 10.000000000000128,94.69072372081487 M 10.000000000000085,109.69072372081497 M 15.837141676563874,109.69072372081507 M 15.837141676563917,124.6907237208149 M 10.000000000000043,124.6907237208149 M 10.000000000000043,139.69072372081487 M 15.837141676564016,139.69072372081484 M 15.83714167656396,154.6907237208148 M 10.000000000000128,154.69072372081484 M 10.000000000000128,169.6907237208148 M 15.837141676563917,169.69072372081484 M 15.837141676563874,184.69072372081484 M 10.000000000000085,184.6907237208149 M 10.000000000000085,199.69072372081484 M 15.83714167656396,199.69072372081484 M 15.83714167656396,214.69072372081484 M 10.000000000000128,214.69072372081484 M 10.000000000000085,229.69072372081484 M 15.837141676563917,229.69072372081496 M 15.83714167656396,244.69072372081484 M 10.0,244.69072372081501 M 10.000000000000085,259.6907237208149 M 15.837141676564059,259.69072372081496 M 15.837141676564144,274.69072372081484 M 10.000000000000085,274.6907237208149 M 10.000000000000085,289.6907237208151 M 15.837141676564286,289.6907237208149 M 15.837141676564286,304.69072372081496 M 10.000000000000085,304.69072372081513 M 10.000000000000085,319.690723720815 M 15.837141676564286,319.6907237208149 M 15.83714167656423,334.69072372081513 M 10.000000000000043,334.69072372081513 M 10.000000000000085,349.6907237208149 M 15.837141676564102,349.69072372081484 M 15.837141676564102,364.69072372081496 M 10.000000000000128,364.6907237208149 M 10.000000000000128,376.6761840238314 M 14.721250521149642,377.0050637040978 M 14.339049766691176,382.491767868101 M 29.302788395791197,383.534133562079 M 29.68498915024962,378.0474293980751 M 44.648727779349684,379.08979509205295 M 44.26652702489122,384.57649925605614 M 59.230265653991054,385.6188649500337 M 59.61246640844948,380.13216078603045 M 74.57620503754954,381.17452648000796 M 74.19400428309108,386.6612306440108 M 89.1577429121911,387.70359633798887 M 89.53994366664956,382.21689217398585 M 104.50368229574939,383.25925786796296 M 104.12148154129092,388.7459620319664 M 119.08522017039114,389.7883277259436 M 119.4674209248496,384.3016235619408 M 134.43115955394944,385.34398925591813 M 134.04895879949095,390.8306934199215 M 149.0126974285908,391.87305911389905 M 149.39489818304946,386.3863549498957 M 164.35863681214948,387.4287206438733 M 163.97643605769105,392.9154248078763 M 178.94017468679107,393.9577905018542 M 179.32237544124933,388.47108633785086 M 194.28611407034936,389.5134520318283 M 193.90391331589103,395.00015619583155 M 208.86765194499088,396.04252188980934 M 209.24985269944938,390.5558177258059 M 224.2135913285494,391.5981834197835 M 223.8313905740909,397.0848875837867 M 238.79512920319092,398.1272532777642 M 239.17732995764942,392.64054911376104 M 254.1410685867492,393.68291480773854 M 253.75886783229095,399.1696189717418 M 268.7226064613908,400.2119846657194 M 269.10480721584923,394.72528050171604 M 284.06854584494926,395.7676461956936 M 283.6863450904908,401.254350359697 M 298.65008371959084,402.2967160536746 M 299.0322844740491,396.81001188967116 M 313.9960231031491,397.8523775836488 M 313.6138223486907,403.3390817476522 "
  />
</svg>
