<?xml version="1.0" standalone="no"?>
<!DOCTYPE svg PUBLIC "-//W3C//DTD SVG 1.1//EN" "http://www.w3.org/Graphics/SVG/1.1/DTD/svg11.dtd">
<svg width="224.00000000000014mm" height="429.9999999999997mm"
 viewBox="0 0 224.00000000000014 429.9999999999997"
 xmlns="http://www.w3.org/2000/svg" version="1.1"
 xmlns:xlink="http://www.w3.org/1999/xlink">
<desc>Output from Flights of Ideas SVG Sketchup Plugin</desc>

  <path id="face0-cut"
 style="fill:none;stroke:#0000FF;stroke-width:1;stroke-miterlimit:4;stroke-dasharray:none;stroke-linejoin:round;stroke-linecap:round"
        d="M 189.042775693131,260.65263096110016 L 189.00000000000006,259.9999999999999 L 189.00000000000014,169.99999999999983 L 189.0427756931311,169.34736903889956 L 189.17037086855478,168.70590477448724 L 189.3806023374437,168.08658283817437 L 189.6698729810779,167.4999999999999 L 190.03323329854393,166.9561928549562 L 190.46446609406738,166.46446609406712 L 190.95619285495653,166.03323329854368 L 191.50000000000009,165.66987298107767 L 192.08658283817465,165.3806023374434 L 192.7059047744875,165.17037086855453 L 193.34736903889984,165.0427756931308 L 194.00000000000009,164.99999999999983 L 209.00000000000009,164.99999999999983 L 209.65263096110033,164.9572243068689 L 210.2940952255127,164.8296291314452 L 210.91341716182555,164.61939766255625 L 211.50000000000009,164.3301270189221 L 212.0438071450437,163.96676670145604 L 212.53553390593282,163.5355339059326 L 212.96676670145627,163.04380714504344 L 213.33012701892227,162.4999999999999 L 213.6193976625565,161.9134171618253 L 213.8296291314454,161.29409522551242 L 213.9572243068691,160.6526309611001 L 214.00000000000003,159.9999999999999 L 214.00000000000014,10.0 L 10.000000000000089,10.0 L 10.0,419.9999999999997 L 214.00000000000006,419.9999999999997 L 214.0000000000001,269.9999999999999 L 213.95722430686916,269.3473690388996 L 213.82962913144544,268.70590477448724 L 213.61939766255654,268.0865828381744 L 213.3301270189223,267.49999999999983 L 212.9667667014563,266.95619285495627 L 212.53553390593285,266.4644660940672 L 212.04380714504373,266.03323329854373 L 211.5000000000001,265.6698729810777 L 210.91341716182558,265.38060233744346 L 210.2940952255127,265.1703708685545 L 209.65263096110036,265.0427756931308 L 209.0000000000001,264.9999999999999 L 194.00000000000006,264.9999999999999 L 193.3473690388998,264.95722430686897 L 192.70590477448744,264.8296291314452 L 192.08658283817462,264.6193976625563 L 191.50000000000006,264.33012701892204 L 190.95619285495644,263.96676670145604 L 190.46446609406732,263.5355339059326 L 190.03323329854388,263.0438071450435 L 189.66987298107787,262.4999999999999 L 189.38060233744363,261.9134171618253 L 189.1703708685547,261.2940952255125 L 189.042775693131,260.65263096110016 M 73.89672507371137,411.8051741761352 L 73.84910471069453,406.555306989065 L 88.97791674077234,406.41807694204846 L 89.02553710378905,411.6679441291231 L 73.89672507371137,411.8051741761352 M 164.6695972541772,410.9817938940703 L 164.62197689116059,405.73192670699615 L 179.75078892123838,405.59469665998654 L 179.79840928425483,410.84456384705476 L 164.6695972541772,410.9817938940703 M 19.52769495714634,57.499999999999886 L 13.94207859648828,57.49999999999977 L 13.942078596488212,42.499999999999744 L 19.527694957146185,42.499999999999915 L 19.52769495714634,57.499999999999886 M 104.1543491338667,411.5307140821112 L 104.10672877085003,406.2808468950379 L 119.23554080092768,406.14361684802657 L 119.28316116394433,411.39348403509877 L 104.1543491338667,411.5307140821112 M 19.527694957148686,297.4999999999999 L 13.942078596488212,297.4999999999999 L 13.942078596488237,282.49999999999994 L 19.52769495714855,282.4999999999998 L 19.527694957148686,297.4999999999999 M 19.527694957148913,357.4999999999999 L 13.942078596488258,357.49999999999994 L 13.942078596488237,342.4999999999999 L 19.5276949571488,342.49999999999994 L 19.527694957148913,357.4999999999999 M 19.527694957148867,327.5 L 13.942078596488237,327.49999999999983 L 13.942078596488237,312.4999999999999 L 19.527694957148757,312.5000000000001 L 19.527694957148867,327.5 M 149.5407852241003,18.880976058917952 L 149.49316486108293,24.130843245994015 L 134.3643528310054,23.993613198983894 L 134.41197319402232,18.74374601190648 L 149.5407852241003,18.880976058917952 M 58.76791304363371,411.9424042231482 L 43.63910101355613,412.079634270163 L 43.59148065053913,406.8297670830862 L 58.720292680616964,406.6925370360754 L 58.76791304363371,411.9424042231482 M 73.84910471069458,23.444693010944263 L 73.89672507371152,18.1948258238603 L 89.0255371037894,18.332055870871784 L 88.97791674077232,23.58192305795731 L 73.84910471069458,23.444693010944263 M 164.6219768911606,24.26807329300324 L 164.66959725417757,19.018206105929522 L 179.79840928425537,19.155436152941093 L 179.75078892123858,24.40530334001363 L 164.6219768911606,24.26807329300324 M 13.336926115290499,407.4426243889359 L 13.942078596488258,407.43403529251765 L 13.94207859648819,402.49999999999994 L 19.527694957149365,402.49999999999994 L 19.527694957147695,407.04804426409953 L 28.46266862046153,406.9669971300989 L 28.510288983478453,412.2168643171748 L 13.381476953404004,412.3540943641846 L 13.336926115290499,407.4426243889359 M 19.527694957148306,237.4999999999999 L 13.942078596488237,237.5 L 13.942078596488258,222.5 L 19.52769495714855,222.50000000000006 L 19.527694957148306,237.4999999999999 M 134.41197319402193,411.25625398808785 L 134.36435283100525,406.00638680101576 L 149.49316486108333,405.86915675400473 L 149.54078522409958,411.11902394108034 L 134.41197319402193,411.25625398808785 M 104.15434913386713,18.46928591788334 L 119.2831611639447,18.60651596489491 L 119.23554080092771,23.85638315197386 L 104.10672877085003,23.71915310496307 L 104.15434913386713,18.46928591788334 M 19.527694957147897,177.49999999999994 L 13.942078596488212,177.50000000000006 L 13.942078596488237,162.49999999999994 L 19.527694957147695,162.5 L 19.527694957147897,177.49999999999994 M 58.76791304363401,18.057595776848743 L 58.720292680616744,23.307462963951778 L 43.591480650539,23.170232916945764 L 43.63910101355619,17.920365729837215 L 58.76791304363401,18.057595776848743 M 13.94207859648819,27.499999999999815 L 13.942078596488237,22.565964707481044 L 13.336926115290726,22.557375611063037 L 13.381476953403979,17.645905635814124 L 28.51028898347863,17.783135682825737 L 28.465738145365197,22.694605658076128 L 28.46266862046155,23.03300286991015 L 19.52769495714765,22.95195573590037 L 19.527694957146295,27.49999999999976 L 18.884157192983963,27.499999999999858 L 13.94207859648819,27.499999999999815 M 19.527694957147222,147.49999999999994 L 13.942078596488258,147.4999999999999 L 13.942078596488258,132.4999999999999 L 19.52769495714704,132.49999999999994 L 19.527694957147222,147.49999999999994 M 19.52769495714801,267.5000000000005 L 13.942078596488258,267.5000000000001 L 13.942078596488237,252.5000000000004 L 19.527694957147876,252.4999999999999 L 19.52769495714801,267.5000000000005 M 19.52769495714686,117.49999999999993 L 13.942078596488237,117.49999999999993 L 13.942078596488258,102.49999999999982 L 19.52769495714677,102.4999999999999 L 19.52769495714686,117.49999999999993 M 19.527694957146274,87.49999999999987 L 13.94207859648828,87.49999999999976 L 13.94207859648828,72.49999999999982 L 19.52769495714616,72.49999999999986 L 19.527694957146274,87.49999999999987 M 19.527694957149162,387.5 L 13.942078596488237,387.5 L 13.942078596488212,372.4999999999999 L 19.527694957149027,372.5 L 19.527694957149162,387.5 M 19.52769495714765,207.5 L 13.942078596488237,207.5 L 13.942078596488237,192.5 L 19.527694957147492,192.5000000000001 L 19.52769495714765,207.5 "
  />
  <path id="face0-interior"
 style="fill:none;stroke:#FF0000;stroke-width:1;stroke-miterlimit:4;stroke-dasharray:none;stroke-linejoin:round;stroke-linecap:round"
        d="M 189.042775693131,260.65263096110016 M 189.00000000000006,259.9999999999999 M 189.00000000000014,169.99999999999983 M 189.0427756931311,169.34736903889956 M 189.17037086855478,168.70590477448724 M 189.3806023374437,168.08658283817437 M 189.6698729810779,167.4999999999999 M 190.03323329854393,166.9561928549562 M 190.46446609406738,166.46446609406712 M 190.95619285495653,166.03323329854368 M 191.50000000000009,165.66987298107767 M 192.08658283817465,165.3806023374434 M 192.7059047744875,165.17037086855453 M 193.34736903889984,165.0427756931308 M 194.00000000000009,164.99999999999983 M 209.00000000000009,164.99999999999983 M 209.65263096110033,164.9572243068689 M 210.2940952255127,164.8296291314452 M 210.91341716182555,164.61939766255625 M 211.50000000000009,164.3301270189221 M 212.0438071450437,163.96676670145604 M 212.53553390593282,163.5355339059326 M 212.96676670145627,163.04380714504344 M 213.33012701892227,162.4999999999999 M 213.6193976625565,161.9134171618253 M 213.8296291314454,161.29409522551242 M 213.9572243068691,160.6526309611001 M 214.00000000000003,159.9999999999999 M 214.00000000000014,10.0 M 10.000000000000089,10.0 M 10.0,419.9999999999997 M 214.00000000000006,419.9999999999997 M 214.0000000000001,269.9999999999999 M 213.95722430686916,269.3473690388996 M 213.82962913144544,268.70590477448724 M 213.61939766255654,268.0865828381744 M 213.3301270189223,267.49999999999983 M 212.9667667014563,266.95619285495627 M 212.53553390593285,266.4644660940672 M 212.04380714504373,266.03323329854373 M 211.5000000000001,265.6698729810777 M 210.91341716182558,265.38060233744346 M 210.2940952255127,265.1703708685545 M 209.65263096110036,265.0427756931308 M 209.0000000000001,264.9999999999999 M 194.00000000000006,264.9999999999999 M 193.3473690388998,264.95722430686897 M 192.70590477448744,264.8296291314452 M 192.08658283817462,264.6193976625563 M 191.50000000000006,264.33012701892204 M 190.95619285495644,263.96676670145604 M 190.46446609406732,263.5355339059326 M 190.03323329854388,263.0438071450435 M 189.66987298107787,262.4999999999999 M 189.38060233744363,261.9134171618253 M 189.1703708685547,261.2940952255125 M 73.89672507371137,411.8051741761352 M 73.84910471069453,406.555306989065 M 88.97791674077234,406.41807694204846 M 89.02553710378905,411.6679441291231 M 164.6695972541772,410.9817938940703 M 164.62197689116059,405.73192670699615 M 179.75078892123838,405.59469665998654 M 179.79840928425483,410.84456384705476 M 19.52769495714634,57.499999999999886 M 13.94207859648828,57.49999999999977 M 13.942078596488212,42.499999999999744 M 19.527694957146185,42.499999999999915 M 104.1543491338667,411.5307140821112 M 104.10672877085003,406.2808468950379 M 119.23554080092768,406.14361684802657 M 119.28316116394433,411.39348403509877 M 19.527694957148686,297.4999999999999 M 13.942078596488212,297.4999999999999 M 13.942078596488237,282.49999999999994 M 19.52769495714855,282.4999999999998 M 19.527694957148913,357.4999999999999 M 13.942078596488258,357.49999999999994 M 13.942078596488237,342.4999999999999 M 19.5276949571488,342.49999999999994 M 19.527694957148867,327.5 M 13.942078596488237,327.49999999999983 M 13.942078596488237,312.4999999999999 M 19.527694957148757,312.5000000000001 M 149.5407852241003,18.880976058917952 M 149.49316486108293,24.130843245994015 M 134.3643528310054,23.993613198983894 M 134.41197319402232,18.74374601190648 M 58.76791304363371,411.9424042231482 M 43.63910101355613,412.079634270163 M 43.59148065053913,406.8297670830862 M 58.720292680616964,406.6925370360754 M 73.84910471069458,23.444693010944263 M 73.89672507371152,18.1948258238603 M 89.0255371037894,18.332055870871784 M 88.97791674077232,23.58192305795731 M 164.6219768911606,24.26807329300324 M 164.66959725417757,19.018206105929522 M 179.79840928425537,19.155436152941093 M 179.75078892123858,24.40530334001363 M 13.336926115290499,407.4426243889359 M 13.942078596488258,407.43403529251765 M 13.94207859648819,402.49999999999994 M 19.527694957149365,402.49999999999994 M 19.527694957147695,407.04804426409953 M 28.46266862046153,406.9669971300989 M 28.510288983478453,412.2168643171748 M 13.381476953404004,412.3540943641846 M 19.527694957148306,237.4999999999999 M 13.942078596488237,237.5 M 13.942078596488258,222.5 M 19.52769495714855,222.50000000000006 M 134.41197319402193,411.25625398808785 M 134.36435283100525,406.00638680101576 M 149.49316486108333,405.86915675400473 M 149.54078522409958,411.11902394108034 M 104.15434913386713,18.46928591788334 M 119.2831611639447,18.60651596489491 M 119.23554080092771,23.85638315197386 M 104.10672877085003,23.71915310496307 M 19.527694957147897,177.49999999999994 M 13.942078596488212,177.50000000000006 M 13.942078596488237,162.49999999999994 M 19.527694957147695,162.5 M 58.76791304363401,18.057595776848743 M 58.720292680616744,23.307462963951778 M 43.591480650539,23.170232916945764 M 43.63910101355619,17.920365729837215 M 13.94207859648819,27.499999999999815 M 13.942078596488237,22.565964707481044 M 13.336926115290726,22.557375611063037 M 13.381476953403979,17.645905635814124 M 28.51028898347863,17.783135682825737 M 28.465738145365197,22.694605658076128 M 28.46266862046155,23.03300286991015 M 19.52769495714765,22.95195573590037 M 19.527694957146295,27.49999999999976 M 18.884157192983963,27.499999999999858 M 19.527694957147222,147.49999999999994 M 13.942078596488258,147.4999999999999 M 13.942078596488258,132.4999999999999 M 19.52769495714704,132.49999999999994 M 19.52769495714801,267.5000000000005 M 13.942078596488258,267.5000000000001 M 13.942078596488237,252.5000000000004 M 19.527694957147876,252.4999999999999 M 19.52769495714686,117.49999999999993 M 13.942078596488237,117.49999999999993 M 13.942078596488258,102.49999999999982 M 19.52769495714677,102.4999999999999 M 19.527694957146274,87.49999999999987 M 13.94207859648828,87.49999999999976 M 13.94207859648828,72.49999999999982 M 19.52769495714616,72.49999999999986 M 19.527694957149162,387.5 M 13.942078596488237,387.5 M 13.942078596488212,372.4999999999999 M 19.527694957149027,372.5 M 19.52769495714765,207.5 M 13.942078596488237,207.5 M 13.942078596488237,192.5 M 19.527694957147492,192.5000000000001 "
  />
  <path id="face0-interior"
 style="fill:none;stroke:#00FF00;stroke-width:1;stroke-miterlimit:4;stroke-dasharray:none;stroke-linejoin:round;stroke-linecap:round"
        d="M 189.042775693131,260.65263096110016 M 189.00000000000006,259.9999999999999 M 189.00000000000014,169.99999999999983 M 189.0427756931311,169.34736903889956 M 189.17037086855478,168.70590477448724 M 189.3806023374437,168.08658283817437 M 189.6698729810779,167.4999999999999 M 190.03323329854393,166.9561928549562 M 190.46446609406738,166.46446609406712 M 190.95619285495653,166.03323329854368 M 191.50000000000009,165.66987298107767 M 192.08658283817465,165.3806023374434 M 192.7059047744875,165.17037086855453 M 193.34736903889984,165.0427756931308 M 194.00000000000009,164.99999999999983 M 209.00000000000009,164.99999999999983 M 209.65263096110033,164.9572243068689 M 210.2940952255127,164.8296291314452 M 210.91341716182555,164.61939766255625 M 211.50000000000009,164.3301270189221 M 212.0438071450437,163.96676670145604 M 212.53553390593282,163.5355339059326 M 212.96676670145627,163.04380714504344 M 213.33012701892227,162.4999999999999 M 213.6193976625565,161.9134171618253 M 213.8296291314454,161.29409522551242 M 213.9572243068691,160.6526309611001 M 214.00000000000003,159.9999999999999 M 214.00000000000014,10.0 M 10.000000000000089,10.0 M 10.0,419.9999999999997 M 214.00000000000006,419.9999999999997 M 214.0000000000001,269.9999999999999 M 213.95722430686916,269.3473690388996 M 213.82962913144544,268.70590477448724 M 213.61939766255654,268.0865828381744 M 213.3301270189223,267.49999999999983 M 212.9667667014563,266.95619285495627 M 212.53553390593285,266.4644660940672 M 212.04380714504373,266.03323329854373 M 211.5000000000001,265.6698729810777 M 210.91341716182558,265.38060233744346 M 210.2940952255127,265.1703708685545 M 209.65263096110036,265.0427756931308 M 209.0000000000001,264.9999999999999 M 194.00000000000006,264.9999999999999 M 193.3473690388998,264.95722430686897 M 192.70590477448744,264.8296291314452 M 192.08658283817462,264.6193976625563 M 191.50000000000006,264.33012701892204 M 190.95619285495644,263.96676670145604 M 190.46446609406732,263.5355339059326 M 190.03323329854388,263.0438071450435 M 189.66987298107787,262.4999999999999 M 189.38060233744363,261.9134171618253 M 189.1703708685547,261.2940952255125 M 73.89672507371137,411.8051741761352 M 73.84910471069453,406.555306989065 M 88.97791674077234,406.41807694204846 M 89.02553710378905,411.6679441291231 M 164.6695972541772,410.9817938940703 M 164.62197689116059,405.73192670699615 M 179.75078892123838,405.59469665998654 M 179.79840928425483,410.84456384705476 M 19.52769495714634,57.499999999999886 M 13.94207859648828,57.49999999999977 M 13.942078596488212,42.499999999999744 M 19.527694957146185,42.499999999999915 M 104.1543491338667,411.5307140821112 M 104.10672877085003,406.2808468950379 M 119.23554080092768,406.14361684802657 M 119.28316116394433,411.39348403509877 M 19.527694957148686,297.4999999999999 M 13.942078596488212,297.4999999999999 M 13.942078596488237,282.49999999999994 M 19.52769495714855,282.4999999999998 M 19.527694957148913,357.4999999999999 M 13.942078596488258,357.49999999999994 M 13.942078596488237,342.4999999999999 M 19.5276949571488,342.49999999999994 M 19.527694957148867,327.5 M 13.942078596488237,327.49999999999983 M 13.942078596488237,312.4999999999999 M 19.527694957148757,312.5000000000001 M 149.5407852241003,18.880976058917952 M 149.49316486108293,24.130843245994015 M 134.3643528310054,23.993613198983894 M 134.41197319402232,18.74374601190648 M 58.76791304363371,411.9424042231482 M 43.63910101355613,412.079634270163 M 43.59148065053913,406.8297670830862 M 58.720292680616964,406.6925370360754 M 73.84910471069458,23.444693010944263 M 73.89672507371152,18.1948258238603 M 89.0255371037894,18.332055870871784 M 88.97791674077232,23.58192305795731 M 164.6219768911606,24.26807329300324 M 164.66959725417757,19.018206105929522 M 179.79840928425537,19.155436152941093 M 179.75078892123858,24.40530334001363 M 13.336926115290499,407.4426243889359 M 13.942078596488258,407.43403529251765 M 13.94207859648819,402.49999999999994 M 19.527694957149365,402.49999999999994 M 19.527694957147695,407.04804426409953 M 28.46266862046153,406.9669971300989 M 28.510288983478453,412.2168643171748 M 13.381476953404004,412.3540943641846 M 19.527694957148306,237.4999999999999 M 13.942078596488237,237.5 M 13.942078596488258,222.5 M 19.52769495714855,222.50000000000006 M 134.41197319402193,411.25625398808785 M 134.36435283100525,406.00638680101576 M 149.49316486108333,405.86915675400473 M 149.54078522409958,411.11902394108034 M 104.15434913386713,18.46928591788334 M 119.2831611639447,18.60651596489491 M 119.23554080092771,23.85638315197386 M 104.10672877085003,23.71915310496307 M 19.527694957147897,177.49999999999994 M 13.942078596488212,177.50000000000006 M 13.942078596488237,162.49999999999994 M 19.527694957147695,162.5 M 58.76791304363401,18.057595776848743 M 58.720292680616744,23.307462963951778 M 43.591480650539,23.170232916945764 M 43.63910101355619,17.920365729837215 M 13.94207859648819,27.499999999999815 M 13.942078596488237,22.565964707481044 M 13.336926115290726,22.557375611063037 M 13.381476953403979,17.645905635814124 M 28.51028898347863,17.783135682825737 M 28.465738145365197,22.694605658076128 M 28.46266862046155,23.03300286991015 M 19.52769495714765,22.95195573590037 M 19.527694957146295,27.49999999999976 M 18.884157192983963,27.499999999999858 M 19.527694957147222,147.49999999999994 M 13.942078596488258,147.4999999999999 M 13.942078596488258,132.4999999999999 M 19.52769495714704,132.49999999999994 M 19.52769495714801,267.5000000000005 M 13.942078596488258,267.5000000000001 M 13.942078596488237,252.5000000000004 M 19.527694957147876,252.4999999999999 M 19.52769495714686,117.49999999999993 M 13.942078596488237,117.49999999999993 M 13.942078596488258,102.49999999999982 M 19.52769495714677,102.4999999999999 M 19.527694957146274,87.49999999999987 M 13.94207859648828,87.49999999999976 M 13.94207859648828,72.49999999999982 M 19.52769495714616,72.49999999999986 M 19.527694957149162,387.5 M 13.942078596488237,387.5 M 13.942078596488212,372.4999999999999 M 19.527694957149027,372.5 M 19.52769495714765,207.5 M 13.942078596488237,207.5 M 13.942078596488237,192.5 M 19.527694957147492,192.5000000000001 "
  />
</svg>
