<?xml version="1.0" standalone="no"?>
<!DOCTYPE svg PUBLIC "-//W3C//DTD SVG 1.1//EN" "http://www.w3.org/Graphics/SVG/1.1/DTD/svg11.dtd">
<svg width="191.449560565673mm" height="369.8333736432327mm"
 viewBox="0 0 191.449560565673 369.8333736432327"
 xmlns="http://www.w3.org/2000/svg" version="1.1"
 xmlns:xlink="http://www.w3.org/1999/xlink">
<desc>Output from Flights of Ideas SVG Sketchup Plugin</desc>

  <path id="face0-cut"
 style="fill:none;stroke:#0000FF;stroke-width:1;stroke-miterlimit:4;stroke-dasharray:none;stroke-linejoin:round;stroke-linecap:round"
        d="M 25.284304781172835,353.9833910293548 L 25.3219211881228,359.8333736432327 L 40.45000266709423,359.69615022288684 L 40.41311681125052,353.84616098234324 L 55.541928841328236,353.70893093533175 L 55.57811198164614,359.55892655005067 L 70.72380347542021,359.42154339322616 L 70.67074087140591,353.57170088831964 L 85.79955290148357,353.43447084130867 L 85.83440798748242,359.28447850251126 L 100.96259188993632,359.1472541531052 L 100.92836493156125,353.2972407942972 L 116.05717696163889,353.1600107472845 L 116.11023956565415,359.009853252198 L 131.2190252494812,358.8728048596608 L 131.18598899171658,353.0227807002754 L 146.3148010217942,352.8855506532626 L 146.3678636258088,358.73539315817374 L 161.4966756558863,358.59816311116293 L 161.4436130518719,352.7483206062527 L 176.57242508194867,352.6110905592377 L 176.62548768596463,358.46093306415304 L 181.449560565673,358.4171749854116 L 181.44956056567278,11.41618790499274 L 176.62548768595903,11.372429826251675 L 176.57242508194582,17.2222723311624 L 161.44361305186808,17.085042284150973 L 161.49667565588243,11.235199779240304 L 146.3678636258047,11.097969732228933 L 146.3148010217904,16.947812237139715 L 131.18598899171283,16.8105821901284 L 131.2390515957271,10.960739685217504 L 116.11023956564938,10.823509638206133 L 116.05717696163507,16.673352143117086 L 100.92836493155741,16.53612209610577 L 100.98142753557168,10.686279591194818 L 85.85261550549397,10.54904954418339 L 85.79955290147973,16.3988920490944 L 70.67074087140203,16.261662002083142 L 70.72380347541635,10.411819497172019 L 55.59499144533863,10.274589450160647 L 55.541928841324314,16.12443195507177 L 40.41311681124665,15.987201908060456 L 40.4511418096511,10.13722300041519 L 25.32310662569813,10.0 L 25.28430478116895,15.849971861049255 L 15.585616360655722,15.761997242468738 L 15.585616360655708,27.068384231578193 L 10.0,27.068384231578193 L 10.000000000000028,42.068384231578136 L 15.58561636065573,42.06838423157825 L 15.585616360655719,57.06838423157819 L 10.000000000000005,57.06838423157819 L 10.000000000000023,72.0683842315782 L 15.58561636065573,72.0683842315782 L 15.585616360655715,87.06838423157825 L 10.000000000000028,87.0683842315783 L 10.000000000000057,102.0683842315783 L 15.585616360655697,102.06838423157825 L 15.585616360655708,117.06838423157828 L 10.000000000000083,117.06838423157828 L 10.00000000000007,132.06838423157834 L 15.585616360655726,132.06838423157828 L 15.585616360655697,147.0683842315783 L 10.000000000000083,147.06838423157836 L 10.000000000000131,162.06838423157834 L 15.585616360655708,162.06838423157834 L 15.585616360655743,177.06838423157834 L 10.000000000000115,177.0683842315783 L 10.00000000000014,192.06838423157834 L 15.585616360655736,192.06838423157834 L 15.58561636065574,207.06838423157836 L 10.000000000000144,207.0683842315784 L 10.00000000000018,222.0683842315784 L 15.585616360655711,222.06838423157836 L 15.585616360655726,237.06838423157836 L 10.000000000000163,237.0683842315783 L 10.000000000000174,252.06838423157834 L 15.585616360655719,252.06838423157834 L 15.585616360655719,267.0683842315783 L 10.000000000000194,267.0683842315783 L 10.000000000000213,282.06838423157836 L 15.58561636065573,282.06838423157836 L 15.58561636065573,297.0683842315783 L 10.000000000000226,297.0683842315783 L 10.000000000000236,312.06838423157836 L 15.585616360655726,312.06838423157836 L 15.58561636065573,327.06838423157836 L 10.00000000000024,327.06838423157836 L 10.00000000000026,342.06838423157836 L 15.58561636065573,342.06838423157836 L 15.585616360655733,354.07136564793257 L 25.284304781172835,353.9833910293548 "
  />
  <path id="face0-interior"
 style="fill:none;stroke:#FF0000;stroke-width:1;stroke-miterlimit:4;stroke-dasharray:none;stroke-linejoin:round;stroke-linecap:round"
        d="M 25.284304781172835,353.9833910293548 M 25.3219211881228,359.8333736432327 M 40.45000266709423,359.69615022288684 M 40.41311681125052,353.84616098234324 M 55.541928841328236,353.70893093533175 M 55.57811198164614,359.55892655005067 M 70.72380347542021,359.42154339322616 M 70.67074087140591,353.57170088831964 M 85.79955290148357,353.43447084130867 M 85.83440798748242,359.28447850251126 M 100.96259188993632,359.1472541531052 M 100.92836493156125,353.2972407942972 M 116.05717696163889,353.1600107472845 M 116.11023956565415,359.009853252198 M 131.2190252494812,358.8728048596608 M 131.18598899171658,353.0227807002754 M 146.3148010217942,352.8855506532626 M 146.3678636258088,358.73539315817374 M 161.4966756558863,358.59816311116293 M 161.4436130518719,352.7483206062527 M 176.57242508194867,352.6110905592377 M 176.62548768596463,358.46093306415304 M 181.449560565673,358.4171749854116 M 181.44956056567278,11.41618790499274 M 176.62548768595903,11.372429826251675 M 176.57242508194582,17.2222723311624 M 161.44361305186808,17.085042284150973 M 161.49667565588243,11.235199779240304 M 146.3678636258047,11.097969732228933 M 146.3148010217904,16.947812237139715 M 131.18598899171283,16.8105821901284 M 131.2390515957271,10.960739685217504 M 116.11023956564938,10.823509638206133 M 116.05717696163507,16.673352143117086 M 100.92836493155741,16.53612209610577 M 100.98142753557168,10.686279591194818 M 85.85261550549397,10.54904954418339 M 85.79955290147973,16.3988920490944 M 70.67074087140203,16.261662002083142 M 70.72380347541635,10.411819497172019 M 55.59499144533863,10.274589450160647 M 55.541928841324314,16.12443195507177 M 40.41311681124665,15.987201908060456 M 40.4511418096511,10.13722300041519 M 25.32310662569813,10.0 M 25.28430478116895,15.849971861049255 M 15.585616360655722,15.761997242468738 M 15.585616360655708,27.068384231578193 M 10.0,27.068384231578193 M 10.000000000000028,42.068384231578136 M 15.58561636065573,42.06838423157825 M 15.585616360655719,57.06838423157819 M 10.000000000000005,57.06838423157819 M 10.000000000000023,72.0683842315782 M 15.58561636065573,72.0683842315782 M 15.585616360655715,87.06838423157825 M 10.000000000000028,87.0683842315783 M 10.000000000000057,102.0683842315783 M 15.585616360655697,102.06838423157825 M 15.585616360655708,117.06838423157828 M 10.000000000000083,117.06838423157828 M 10.00000000000007,132.06838423157834 M 15.585616360655726,132.06838423157828 M 15.585616360655697,147.0683842315783 M 10.000000000000083,147.06838423157836 M 10.000000000000131,162.06838423157834 M 15.585616360655708,162.06838423157834 M 15.585616360655743,177.06838423157834 M 10.000000000000115,177.0683842315783 M 10.00000000000014,192.06838423157834 M 15.585616360655736,192.06838423157834 M 15.58561636065574,207.06838423157836 M 10.000000000000144,207.0683842315784 M 10.00000000000018,222.0683842315784 M 15.585616360655711,222.06838423157836 M 15.585616360655726,237.06838423157836 M 10.000000000000163,237.0683842315783 M 10.000000000000174,252.06838423157834 M 15.585616360655719,252.06838423157834 M 15.585616360655719,267.0683842315783 M 10.000000000000194,267.0683842315783 M 10.000000000000213,282.06838423157836 M 15.58561636065573,282.06838423157836 M 15.58561636065573,297.0683842315783 M 10.000000000000226,297.0683842315783 M 10.000000000000236,312.06838423157836 M 15.585616360655726,312.06838423157836 M 15.58561636065573,327.06838423157836 M 10.00000000000024,327.06838423157836 M 10.00000000000026,342.06838423157836 M 15.58561636065573,342.06838423157836 M 15.585616360655733,354.07136564793257 "
  />
  <path id="face0-interior"
 style="fill:none;stroke:#00FF00;stroke-width:1;stroke-miterlimit:4;stroke-dasharray:none;stroke-linejoin:round;stroke-linecap:round"
        d="M 25.284304781172835,353.9833910293548 M 25.3219211881228,359.8333736432327 M 40.45000266709423,359.69615022288684 M 40.41311681125052,353.84616098234324 M 55.541928841328236,353.70893093533175 M 55.57811198164614,359.55892655005067 M 70.72380347542021,359.42154339322616 M 70.67074087140591,353.57170088831964 M 85.79955290148357,353.43447084130867 M 85.83440798748242,359.28447850251126 M 100.96259188993632,359.1472541531052 M 100.92836493156125,353.2972407942972 M 116.05717696163889,353.1600107472845 M 116.11023956565415,359.009853252198 M 131.2190252494812,358.8728048596608 M 131.18598899171658,353.0227807002754 M 146.3148010217942,352.8855506532626 M 146.3678636258088,358.73539315817374 M 161.4966756558863,358.59816311116293 M 161.4436130518719,352.7483206062527 M 176.57242508194867,352.6110905592377 M 176.62548768596463,358.46093306415304 M 181.449560565673,358.4171749854116 M 181.44956056567278,11.41618790499274 M 176.62548768595903,11.372429826251675 M 176.57242508194582,17.2222723311624 M 161.44361305186808,17.085042284150973 M 161.49667565588243,11.235199779240304 M 146.3678636258047,11.097969732228933 M 146.3148010217904,16.947812237139715 M 131.18598899171283,16.8105821901284 M 131.2390515957271,10.960739685217504 M 116.11023956564938,10.823509638206133 M 116.05717696163507,16.673352143117086 M 100.92836493155741,16.53612209610577 M 100.98142753557168,10.686279591194818 M 85.85261550549397,10.54904954418339 M 85.79955290147973,16.3988920490944 M 70.67074087140203,16.261662002083142 M 70.72380347541635,10.411819497172019 M 55.59499144533863,10.274589450160647 M 55.541928841324314,16.12443195507177 M 40.41311681124665,15.987201908060456 M 40.4511418096511,10.13722300041519 M 25.32310662569813,10.0 M 25.28430478116895,15.849971861049255 M 15.585616360655722,15.761997242468738 M 15.585616360655708,27.068384231578193 M 10.0,27.068384231578193 M 10.000000000000028,42.068384231578136 M 15.58561636065573,42.06838423157825 M 15.585616360655719,57.06838423157819 M 10.000000000000005,57.06838423157819 M 10.000000000000023,72.0683842315782 M 15.58561636065573,72.0683842315782 M 15.585616360655715,87.06838423157825 M 10.000000000000028,87.0683842315783 M 10.000000000000057,102.0683842315783 M 15.585616360655697,102.06838423157825 M 15.585616360655708,117.06838423157828 M 10.000000000000083,117.06838423157828 M 10.00000000000007,132.06838423157834 M 15.585616360655726,132.06838423157828 M 15.585616360655697,147.0683842315783 M 10.000000000000083,147.06838423157836 M 10.000000000000131,162.06838423157834 M 15.585616360655708,162.06838423157834 M 15.585616360655743,177.06838423157834 M 10.000000000000115,177.0683842315783 M 10.00000000000014,192.06838423157834 M 15.585616360655736,192.06838423157834 M 15.58561636065574,207.06838423157836 M 10.000000000000144,207.0683842315784 M 10.00000000000018,222.0683842315784 M 15.585616360655711,222.06838423157836 M 15.585616360655726,237.06838423157836 M 10.000000000000163,237.0683842315783 M 10.000000000000174,252.06838423157834 M 15.585616360655719,252.06838423157834 M 15.585616360655719,267.0683842315783 M 10.000000000000194,267.0683842315783 M 10.000000000000213,282.06838423157836 M 15.58561636065573,282.06838423157836 M 15.58561636065573,297.0683842315783 M 10.000000000000226,297.0683842315783 M 10.000000000000236,312.06838423157836 M 15.585616360655726,312.06838423157836 M 15.58561636065573,327.06838423157836 M 10.00000000000024,327.06838423157836 M 10.00000000000026,342.06838423157836 M 15.58561636065573,342.06838423157836 M 15.585616360655733,354.07136564793257 "
  />
</svg>
