<?xml version="1.0" standalone="no"?>
<!DOCTYPE svg PUBLIC "-//W3C//DTD SVG 1.1//EN" "http://www.w3.org/Graphics/SVG/1.1/DTD/svg11.dtd">
<svg width="359.8157671775472mm" height="414.38144744162986mm"
 viewBox="0 0 359.8157671775472 414.38144744162986"
 xmlns="http://www.w3.org/2000/svg" version="1.1"
 xmlns:xlink="http://www.w3.org/1999/xlink">
<desc>Output from Flights of Ideas SVG Sketchup Plugin</desc>

  <path id="face0-cut"
 style="fill:none;stroke:#0000FF;stroke-width:1;stroke-miterlimit:4;stroke-dasharray:none;stroke-linejoin:round;stroke-linecap:round"
        d="M 338.5775609777918,404.38144744162986 L 338.95976173225023,398.8947432776264 L 348.5000000000012,399.5593109588164 L 349.8157671775472,399.5593109588164 L 349.81576717754706,394.6907237208151 L 343.8984275302085,394.6907237208151 L 343.8984275302085,379.6907237208151 L 349.8157671775472,379.6907237208151 L 349.8157671775472,364.6907237208151 L 343.8984275302085,364.6907237208151 L 343.8984275302085,349.6907237208151 L 349.81576717754706,349.6907237208151 L 349.81576717754706,334.690723720815 L 343.8984275302085,334.690723720815 L 343.8984275302085,319.690723720815 L 349.8157671775472,319.690723720815 L 349.81576717754706,304.69072372081496 L 343.8984275302085,304.69072372081496 L 343.8984275302085,289.69072372081496 L 349.81576717754706,289.69072372081496 L 349.81576717754706,274.69072372081496 L 343.8984275302085,274.69072372081496 L 343.8984275302085,259.6907237208149 L 349.8157671775472,259.69072372081496 L 349.8157671775472,244.6907237208149 L 343.8984275302085,244.6907237208149 L 343.8984275302085,229.6907237208149 L 349.81576717754706,229.6907237208149 L 349.8157671775472,214.69072372081484 L 343.8984275302085,214.69072372081484 L 343.8984275302085,199.69072372081484 L 349.8157671775472,199.69072372081484 L 349.81576717754706,184.6907237208148 L 343.8984275302085,184.69072372081484 L 343.8984275302085,169.69072372081484 L 349.81576717754706,169.69072372081484 L 349.8157671775472,154.6907237208149 L 343.8984275302085,154.6907237208149 L 343.8984275302085,139.69072372081487 L 349.81576717754706,139.69072372081484 L 349.8157671775472,124.69072372081486 L 343.89842753020844,124.6907237208149 L 343.89842753020844,109.69072372081489 L 349.8157671775472,109.69072372081489 L 349.8157671775472,94.69072372081492 L 343.8984275302085,94.69072372081492 L 343.89842753020844,79.6907237208149 L 349.81576717754706,79.69072372081494 L 349.8157671775472,64.69072372081487 L 343.8984275302085,64.69072372081493 L 343.89842753020855,49.6907237208149 L 349.8157671775472,49.69072372081486 L 349.81576717754706,34.69072372081489 L 343.8984275302085,34.69072372081489 L 343.8984275302085,19.690723720814916 L 349.81576717754706,19.690723720814873 L 349.8157671775472,14.822136482813377 L 348.5000000000012,14.822136482813335 L 338.9597617322504,15.486704164003328 L 338.57756097779213,10.0 L 323.61382234869194,11.042365693977544 L 323.99602310315043,16.529069857980872 L 309.0322844740502,17.571435551958515 L 308.65008371959175,12.084731387955188 L 293.68634509049195,13.127097081932604 L 294.06854584495034,18.613801245936074 L 279.1048072158503,19.656166939913632 L 278.72260646139193,14.169462775910247 L 263.75886783229186,15.211828469887763 L 264.14106858675035,20.69853263389109 L 249.17732995765033,21.74089832786865 L 248.79512920319195,16.254194163865364 L 233.83139057409187,17.296559857842908 L 234.2135913285503,22.783264021846286 L 219.24985269945046,23.825629715823794 L 218.8676519449919,18.338925551820466 L 203.9039133158921,19.381291245798067 L 204.28611407035044,24.867995409801438 L 189.32237544125047,25.910361103778854 L 188.94017468679198,20.42365693977557 L 173.97643605769207,21.46602263375317 L 174.35863681215056,26.952726797756455 L 159.39489818305054,27.9950924917341 L 159.01269742859222,22.50838832773072 L 144.04895879949214,23.55075402170832 L 144.43115955395058,29.037458185711515 L 129.46742092485067,30.079823879689116 L 129.08522017039218,24.59311971568583 L 114.12148154129225,25.63548540966338 L 114.50368229575083,31.122189573666574 L 99.53994366665061,32.16455526764427 L 99.1577429121922,26.67785110364089 L 84.19400428309235,27.720216797618583 L 84.57620503755096,33.20692096162173 L 69.61246640845086,34.249286655599235 L 69.23026565399235,28.762582491596042 L 54.266527024892554,29.8049481855736 L 54.64872777935079,35.29165234957679 L 39.684989150250956,36.33401804355439 L 39.30278839579243,30.847313879551194 L 24.339049766692597,31.889679573528795 L 24.72125052115112,37.37638373753208 L 10.000000000000043,38.401857845042606 L 10.000000000000128,49.69072372081486 L 15.837141676563917,49.690723720814994 L 15.837141676563917,64.69072372081497 L 10.000000000000043,64.69072372081497 L 10.000000000000043,79.69072372081499 L 15.837141676563832,79.69072372081507 L 15.837141676563832,94.690723720815 L 10.0,94.69072372081496 L 10.00000000000017,109.69072372081479 L 15.837141676563874,109.69072372081497 L 15.837141676563832,124.69072372081504 L 10.000000000000085,124.6907237208149 L 10.000000000000128,139.69072372081487 L 15.837141676563917,139.69072372081493 L 15.83714167656396,154.69072372081484 L 10.000000000000043,154.6907237208149 L 10.000000000000085,169.69072372081484 L 15.837141676563832,169.69072372081501 L 15.837141676563874,184.69072372081496 L 10.000000000000085,184.6907237208149 L 10.000000000000043,199.6907237208149 L 15.837141676563874,199.69072372081496 L 15.837141676563917,214.69072372081484 L 10.000000000000128,214.6907237208148 L 10.000000000000085,229.6907237208149 L 15.837141676563917,229.6907237208149 L 15.83714167656396,244.6907237208148 L 10.000000000000085,244.69072372081496 L 10.000000000000043,259.6907237208149 L 15.837141676564059,259.6907237208151 L 15.837141676564144,274.6907237208149 L 10.000000000000085,274.69072372081496 L 10.000000000000043,289.69072372081496 L 15.83714167656423,289.6907237208151 L 15.83714167656423,304.6907237208152 L 10.000000000000085,304.690723720815 L 10.000000000000085,319.690723720815 L 15.837141676564286,319.690723720815 L 15.837141676564286,334.690723720815 L 10.000000000000128,334.69072372081496 L 10.000000000000085,349.69072372081524 L 15.837141676564102,349.6907237208153 L 15.837141676564059,364.6907237208154 L 10.000000000000085,364.69072372081513 L 10.000000000000085,375.9795895965871 L 24.72125052115075,377.0050637040978 L 24.339049766692284,382.491767868101 L 39.302788395792305,383.534133562079 L 39.68498915025073,378.0474293980751 L 54.64872777935079,379.08979509205295 L 54.266527024892326,384.57649925605614 L 69.23026565399216,385.6188649500337 L 69.61246640845059,380.13216078603045 L 84.57620503755065,381.17452648000796 L 84.19400428309218,386.6612306440108 L 99.1577429121922,387.70359633798887 L 99.53994366665067,382.21689217398585 L 114.5036822957505,383.25925786796296 L 114.12148154129203,388.7459620319664 L 129.08522017039223,389.7883277259436 L 129.46742092485073,384.3016235619408 L 144.43115955395052,385.34398925591813 L 144.04895879949208,390.8306934199215 L 159.01269742859193,391.87305911389905 L 159.39489818305054,386.3863549498957 L 174.35863681215056,387.4287206438733 L 173.97643605769218,392.9154248078763 L 188.9401746867922,393.9577905018542 L 189.32237544125041,388.47108633785086 L 204.28611407035044,389.5134520318283 L 203.9039133158921,395.00015619583155 L 218.86765194499196,396.04252188980934 L 219.24985269945046,390.5558177258059 L 234.21359132855048,391.5981834197835 L 233.83139057409198,397.0848875837867 L 248.795129203192,398.1272532777642 L 249.1773299576505,392.64054911376104 L 264.1410685867503,393.68291480773854 L 263.758867832292,399.1696189717418 L 278.7226064613919,400.2119846657194 L 279.1048072158503,394.72528050171604 L 294.06854584495034,395.7676461956936 L 293.6863450904919,401.254350359697 L 308.6500837195919,402.2967160536746 L 309.0322844740502,396.81001188967116 L 323.9960231031502,397.8523775836488 L 323.61382234869177,403.3390817476522 L 338.5775609777918,404.38144744162986 "
  />
  <path id="face0-interior"
 style="fill:none;stroke:#FF0000;stroke-width:1;stroke-miterlimit:4;stroke-dasharray:none;stroke-linejoin:round;stroke-linecap:round"
        d="M 338.5775609777918,404.38144744162986 M 338.95976173225023,398.8947432776264 M 348.5000000000012,399.5593109588164 M 349.8157671775472,399.5593109588164 M 349.81576717754706,394.6907237208151 M 343.8984275302085,394.6907237208151 M 343.8984275302085,379.6907237208151 M 349.8157671775472,379.6907237208151 M 349.8157671775472,364.6907237208151 M 343.8984275302085,364.6907237208151 M 343.8984275302085,349.6907237208151 M 349.81576717754706,349.6907237208151 M 349.81576717754706,334.690723720815 M 343.8984275302085,334.690723720815 M 343.8984275302085,319.690723720815 M 349.8157671775472,319.690723720815 M 349.81576717754706,304.69072372081496 M 343.8984275302085,304.69072372081496 M 343.8984275302085,289.69072372081496 M 349.81576717754706,289.69072372081496 M 349.81576717754706,274.69072372081496 M 343.8984275302085,274.69072372081496 M 343.8984275302085,259.6907237208149 M 349.8157671775472,259.69072372081496 M 349.8157671775472,244.6907237208149 M 343.8984275302085,244.6907237208149 M 343.8984275302085,229.6907237208149 M 349.81576717754706,229.6907237208149 M 349.8157671775472,214.69072372081484 M 343.8984275302085,214.69072372081484 M 343.8984275302085,199.69072372081484 M 349.8157671775472,199.69072372081484 M 349.81576717754706,184.6907237208148 M 343.8984275302085,184.69072372081484 M 343.8984275302085,169.69072372081484 M 349.81576717754706,169.69072372081484 M 349.8157671775472,154.6907237208149 M 343.8984275302085,154.6907237208149 M 343.8984275302085,139.69072372081487 M 349.81576717754706,139.69072372081484 M 349.8157671775472,124.69072372081486 M 343.89842753020844,124.6907237208149 M 343.89842753020844,109.69072372081489 M 349.8157671775472,109.69072372081489 M 349.8157671775472,94.69072372081492 M 343.8984275302085,94.69072372081492 M 343.89842753020844,79.6907237208149 M 349.81576717754706,79.69072372081494 M 349.8157671775472,64.69072372081487 M 343.8984275302085,64.69072372081493 M 343.89842753020855,49.6907237208149 M 349.8157671775472,49.69072372081486 M 349.81576717754706,34.69072372081489 M 343.8984275302085,34.69072372081489 M 343.8984275302085,19.690723720814916 M 349.81576717754706,19.690723720814873 M 349.8157671775472,14.822136482813377 M 348.5000000000012,14.822136482813335 M 338.9597617322504,15.486704164003328 M 338.57756097779213,10.0 M 323.61382234869194,11.042365693977544 M 323.99602310315043,16.529069857980872 M 309.0322844740502,17.571435551958515 M 308.65008371959175,12.084731387955188 M 293.68634509049195,13.127097081932604 M 294.06854584495034,18.613801245936074 M 279.1048072158503,19.656166939913632 M 278.72260646139193,14.169462775910247 M 263.75886783229186,15.211828469887763 M 264.14106858675035,20.69853263389109 M 249.17732995765033,21.74089832786865 M 248.79512920319195,16.254194163865364 M 233.83139057409187,17.296559857842908 M 234.2135913285503,22.783264021846286 M 219.24985269945046,23.825629715823794 M 218.8676519449919,18.338925551820466 M 203.9039133158921,19.381291245798067 M 204.28611407035044,24.867995409801438 M 189.32237544125047,25.910361103778854 M 188.94017468679198,20.42365693977557 M 173.97643605769207,21.46602263375317 M 174.35863681215056,26.952726797756455 M 159.39489818305054,27.9950924917341 M 159.01269742859222,22.50838832773072 M 144.04895879949214,23.55075402170832 M 144.43115955395058,29.037458185711515 M 129.46742092485067,30.079823879689116 M 129.08522017039218,24.59311971568583 M 114.12148154129225,25.63548540966338 M 114.50368229575083,31.122189573666574 M 99.53994366665061,32.16455526764427 M 99.1577429121922,26.67785110364089 M 84.19400428309235,27.720216797618583 M 84.57620503755096,33.20692096162173 M 69.61246640845086,34.249286655599235 M 69.23026565399235,28.762582491596042 M 54.266527024892554,29.8049481855736 M 54.64872777935079,35.29165234957679 M 39.684989150250956,36.33401804355439 M 39.30278839579243,30.847313879551194 M 24.339049766692597,31.889679573528795 M 24.72125052115112,37.37638373753208 M 10.000000000000043,38.401857845042606 M 10.000000000000128,49.69072372081486 M 15.837141676563917,49.690723720814994 M 15.837141676563917,64.69072372081497 M 10.000000000000043,64.69072372081497 M 10.000000000000043,79.69072372081499 M 15.837141676563832,79.69072372081507 M 15.837141676563832,94.690723720815 M 10.0,94.69072372081496 M 10.00000000000017,109.69072372081479 M 15.837141676563874,109.69072372081497 M 15.837141676563832,124.69072372081504 M 10.000000000000085,124.6907237208149 M 10.000000000000128,139.69072372081487 M 15.837141676563917,139.69072372081493 M 15.83714167656396,154.69072372081484 M 10.000000000000043,154.6907237208149 M 10.000000000000085,169.69072372081484 M 15.837141676563832,169.69072372081501 M 15.837141676563874,184.69072372081496 M 10.000000000000085,184.6907237208149 M 10.000000000000043,199.6907237208149 M 15.837141676563874,199.69072372081496 M 15.837141676563917,214.69072372081484 M 10.000000000000128,214.6907237208148 M 10.000000000000085,229.6907237208149 M 15.837141676563917,229.6907237208149 M 15.83714167656396,244.6907237208148 M 10.000000000000085,244.69072372081496 M 10.000000000000043,259.6907237208149 M 15.837141676564059,259.6907237208151 M 15.837141676564144,274.6907237208149 M 10.000000000000085,274.69072372081496 M 10.000000000000043,289.69072372081496 M 15.83714167656423,289.6907237208151 M 15.83714167656423,304.6907237208152 M 10.000000000000085,304.690723720815 M 10.000000000000085,319.690723720815 M 15.837141676564286,319.690723720815 M 15.837141676564286,334.690723720815 M 10.000000000000128,334.69072372081496 M 10.000000000000085,349.69072372081524 M 15.837141676564102,349.6907237208153 M 15.837141676564059,364.6907237208154 M 10.000000000000085,364.69072372081513 M 10.000000000000085,375.9795895965871 M 24.72125052115075,377.0050637040978 M 24.339049766692284,382.491767868101 M 39.302788395792305,383.534133562079 M 39.68498915025073,378.0474293980751 M 54.64872777935079,379.08979509205295 M 54.266527024892326,384.57649925605614 M 69.23026565399216,385.6188649500337 M 69.61246640845059,380.13216078603045 M 84.57620503755065,381.17452648000796 M 84.19400428309218,386.6612306440108 M 99.1577429121922,387.70359633798887 M 99.53994366665067,382.21689217398585 M 114.5036822957505,383.25925786796296 M 114.12148154129203,388.7459620319664 M 129.08522017039223,389.7883277259436 M 129.46742092485073,384.3016235619408 M 144.43115955395052,385.34398925591813 M 144.04895879949208,390.8306934199215 M 159.01269742859193,391.87305911389905 M 159.39489818305054,386.3863549498957 M 174.35863681215056,387.4287206438733 M 173.97643605769218,392.9154248078763 M 188.9401746867922,393.9577905018542 M 189.32237544125041,388.47108633785086 M 204.28611407035044,389.5134520318283 M 203.9039133158921,395.00015619583155 M 218.86765194499196,396.04252188980934 M 219.24985269945046,390.5558177258059 M 234.21359132855048,391.5981834197835 M 233.83139057409198,397.0848875837867 M 248.795129203192,398.1272532777642 M 249.1773299576505,392.64054911376104 M 264.1410685867503,393.68291480773854 M 263.758867832292,399.1696189717418 M 278.7226064613919,400.2119846657194 M 279.1048072158503,394.72528050171604 M 294.06854584495034,395.7676461956936 M 293.6863450904919,401.254350359697 M 308.6500837195919,402.2967160536746 M 309.0322844740502,396.81001188967116 M 323.9960231031502,397.8523775836488 M 323.61382234869177,403.3390817476522 "
  />
  <path id="face0-interior"
 style="fill:none;stroke:#00FF00;stroke-width:1;stroke-miterlimit:4;stroke-dasharray:none;stroke-linejoin:round;stroke-linecap:round"
        d="M 338.5775609777918,404.38144744162986 M 338.95976173225023,398.8947432776264 M 348.5000000000012,399.5593109588164 M 349.8157671775472,399.5593109588164 M 349.81576717754706,394.6907237208151 M 343.8984275302085,394.6907237208151 M 343.8984275302085,379.6907237208151 M 349.8157671775472,379.6907237208151 M 349.8157671775472,364.6907237208151 M 343.8984275302085,364.6907237208151 M 343.8984275302085,349.6907237208151 M 349.81576717754706,349.6907237208151 M 349.81576717754706,334.690723720815 M 343.8984275302085,334.690723720815 M 343.8984275302085,319.690723720815 M 349.8157671775472,319.690723720815 M 349.81576717754706,304.69072372081496 M 343.8984275302085,304.69072372081496 M 343.8984275302085,289.69072372081496 M 349.81576717754706,289.69072372081496 M 349.81576717754706,274.69072372081496 M 343.8984275302085,274.69072372081496 M 343.8984275302085,259.6907237208149 M 349.8157671775472,259.69072372081496 M 349.8157671775472,244.6907237208149 M 343.8984275302085,244.6907237208149 M 343.8984275302085,229.6907237208149 M 349.81576717754706,229.6907237208149 M 349.8157671775472,214.69072372081484 M 343.8984275302085,214.69072372081484 M 343.8984275302085,199.69072372081484 M 349.8157671775472,199.69072372081484 M 349.81576717754706,184.6907237208148 M 343.8984275302085,184.69072372081484 M 343.8984275302085,169.69072372081484 M 349.81576717754706,169.69072372081484 M 349.8157671775472,154.6907237208149 M 343.8984275302085,154.6907237208149 M 343.8984275302085,139.69072372081487 M 349.81576717754706,139.69072372081484 M 349.8157671775472,124.69072372081486 M 343.89842753020844,124.6907237208149 M 343.89842753020844,109.69072372081489 M 349.8157671775472,109.69072372081489 M 349.8157671775472,94.69072372081492 M 343.8984275302085,94.69072372081492 M 343.89842753020844,79.6907237208149 M 349.81576717754706,79.69072372081494 M 349.8157671775472,64.69072372081487 M 343.8984275302085,64.69072372081493 M 343.89842753020855,49.6907237208149 M 349.8157671775472,49.69072372081486 M 349.81576717754706,34.69072372081489 M 343.8984275302085,34.69072372081489 M 343.8984275302085,19.690723720814916 M 349.81576717754706,19.690723720814873 M 349.8157671775472,14.822136482813377 M 348.5000000000012,14.822136482813335 M 338.9597617322504,15.486704164003328 M 338.57756097779213,10.0 M 323.61382234869194,11.042365693977544 M 323.99602310315043,16.529069857980872 M 309.0322844740502,17.571435551958515 M 308.65008371959175,12.084731387955188 M 293.68634509049195,13.127097081932604 M 294.06854584495034,18.613801245936074 M 279.1048072158503,19.656166939913632 M 278.72260646139193,14.169462775910247 M 263.75886783229186,15.211828469887763 M 264.14106858675035,20.69853263389109 M 249.17732995765033,21.74089832786865 M 248.79512920319195,16.254194163865364 M 233.83139057409187,17.296559857842908 M 234.2135913285503,22.783264021846286 M 219.24985269945046,23.825629715823794 M 218.8676519449919,18.338925551820466 M 203.9039133158921,19.381291245798067 M 204.28611407035044,24.867995409801438 M 189.32237544125047,25.910361103778854 M 188.94017468679198,20.42365693977557 M 173.97643605769207,21.46602263375317 M 174.35863681215056,26.952726797756455 M 159.39489818305054,27.9950924917341 M 159.01269742859222,22.50838832773072 M 144.04895879949214,23.55075402170832 M 144.43115955395058,29.037458185711515 M 129.46742092485067,30.079823879689116 M 129.08522017039218,24.59311971568583 M 114.12148154129225,25.63548540966338 M 114.50368229575083,31.122189573666574 M 99.53994366665061,32.16455526764427 M 99.1577429121922,26.67785110364089 M 84.19400428309235,27.720216797618583 M 84.57620503755096,33.20692096162173 M 69.61246640845086,34.249286655599235 M 69.23026565399235,28.762582491596042 M 54.266527024892554,29.8049481855736 M 54.64872777935079,35.29165234957679 M 39.684989150250956,36.33401804355439 M 39.30278839579243,30.847313879551194 M 24.339049766692597,31.889679573528795 M 24.72125052115112,37.37638373753208 M 10.000000000000043,38.401857845042606 M 10.000000000000128,49.69072372081486 M 15.837141676563917,49.690723720814994 M 15.837141676563917,64.69072372081497 M 10.000000000000043,64.69072372081497 M 10.000000000000043,79.69072372081499 M 15.837141676563832,79.69072372081507 M 15.837141676563832,94.690723720815 M 10.0,94.69072372081496 M 10.00000000000017,109.69072372081479 M 15.837141676563874,109.69072372081497 M 15.837141676563832,124.69072372081504 M 10.000000000000085,124.6907237208149 M 10.000000000000128,139.69072372081487 M 15.837141676563917,139.69072372081493 M 15.83714167656396,154.69072372081484 M 10.000000000000043,154.6907237208149 M 10.000000000000085,169.69072372081484 M 15.837141676563832,169.69072372081501 M 15.837141676563874,184.69072372081496 M 10.000000000000085,184.6907237208149 M 10.000000000000043,199.6907237208149 M 15.837141676563874,199.69072372081496 M 15.837141676563917,214.69072372081484 M 10.000000000000128,214.6907237208148 M 10.000000000000085,229.6907237208149 M 15.837141676563917,229.6907237208149 M 15.83714167656396,244.6907237208148 M 10.000000000000085,244.69072372081496 M 10.000000000000043,259.6907237208149 M 15.837141676564059,259.6907237208151 M 15.837141676564144,274.6907237208149 M 10.000000000000085,274.69072372081496 M 10.000000000000043,289.69072372081496 M 15.83714167656423,289.6907237208151 M 15.83714167656423,304.6907237208152 M 10.000000000000085,304.690723720815 M 10.000000000000085,319.690723720815 M 15.837141676564286,319.690723720815 M 15.837141676564286,334.690723720815 M 10.000000000000128,334.69072372081496 M 10.000000000000085,349.69072372081524 M 15.837141676564102,349.6907237208153 M 15.837141676564059,364.6907237208154 M 10.000000000000085,364.69072372081513 M 10.000000000000085,375.9795895965871 M 24.72125052115075,377.0050637040978 M 24.339049766692284,382.491767868101 M 39.302788395792305,383.534133562079 M 39.68498915025073,378.0474293980751 M 54.64872777935079,379.08979509205295 M 54.266527024892326,384.57649925605614 M 69.23026565399216,385.6188649500337 M 69.61246640845059,380.13216078603045 M 84.57620503755065,381.17452648000796 M 84.19400428309218,386.6612306440108 M 99.1577429121922,387.70359633798887 M 99.53994366665067,382.21689217398585 M 114.5036822957505,383.25925786796296 M 114.12148154129203,388.7459620319664 M 129.08522017039223,389.7883277259436 M 129.46742092485073,384.3016235619408 M 144.43115955395052,385.34398925591813 M 144.04895879949208,390.8306934199215 M 159.01269742859193,391.87305911389905 M 159.39489818305054,386.3863549498957 M 174.35863681215056,387.4287206438733 M 173.97643605769218,392.9154248078763 M 188.9401746867922,393.9577905018542 M 189.32237544125041,388.47108633785086 M 204.28611407035044,389.5134520318283 M 203.9039133158921,395.00015619583155 M 218.86765194499196,396.04252188980934 M 219.24985269945046,390.5558177258059 M 234.21359132855048,391.5981834197835 M 233.83139057409198,397.0848875837867 M 248.795129203192,398.1272532777642 M 249.1773299576505,392.64054911376104 M 264.1410685867503,393.68291480773854 M 263.758867832292,399.1696189717418 M 278.7226064613919,400.2119846657194 M 279.1048072158503,394.72528050171604 M 294.06854584495034,395.7676461956936 M 293.6863450904919,401.254350359697 M 308.6500837195919,402.2967160536746 M 309.0322844740502,396.81001188967116 M 323.9960231031502,397.8523775836488 M 323.61382234869177,403.3390817476522 "
  />
</svg>
